<svg xmlns="http://www.w3.org/2000/svg" xmlns:xlink="http://www.w3.org/1999/xlink" width="1020" zoomAndPan="magnify" viewBox="0 0 765 540.000001" height="720" preserveAspectRatio="xMidYMid meet" version="1.0"><defs><clipPath id="1de97269e8"><path d="M 0.707031 0 L 764.292969 0 L 764.292969 539 L 0.707031 539 Z M 0.707031 0 " clip-rule="nonzero"/></clipPath></defs><g clip-path="url(#1de97269e8)"><path fill="#ffffff" d="M 0.707031 0 L 764.292969 0 L 764.292969 539 L 0.707031 539 Z M 0.707031 0 " fill-opacity="1" fill-rule="nonzero"/><path fill="#ffffff" d="M 0.707031 0 L 764.292969 0 L 764.292969 539 L 0.707031 539 Z M 0.707031 0 " fill-opacity="1" fill-rule="nonzero"/></g><path fill="#00d4ff" d="M 483.960938 441.335938 C 484.785156 440.550781 485.582031 439.882812 486.273438 439.125 C 488.90625 436.21875 489.964844 432.902344 488.183594 429.230469 C 482.886719 418.292969 480.578125 406.390625 476.847656 394.945312 C 476.175781 392.894531 476.777344 391.246094 477.398438 389.371094 C 479.496094 383.066406 481.460938 376.71875 483.3125 370.34375 C 483.730469 368.898438 484.40625 368.296875 485.777344 368.097656 C 487.453125 367.859375 489.109375 367.355469 490.785156 367.273438 C 492.085938 367.210938 493.472656 367.453125 494.710938 367.875 C 497.082031 368.683594 499.234375 368.507812 501.144531 366.894531 C 503.101562 365.242188 503.886719 363.078125 503.273438 360.570312 C 498.824219 342.433594 493.175781 324.695312 485.335938 307.714844 C 483.449219 303.636719 481.425781 299.578125 478.988281 295.816406 C 472.4375 285.683594 465.84375 275.558594 458.871094 265.714844 C 447.855469 250.148438 433.140625 238.621094 417.070312 228.710938 C 413.632812 226.59375 410.0625 224.671875 406.492188 222.777344 C 403.960938 221.433594 401.300781 220.617188 398.347656 220.296875 C 395.625 220 393 218.722656 390.378906 217.742188 C 389.945312 217.582031 389.566406 216.777344 389.484375 216.21875 C 389.011719 212.933594 388.648438 209.625 388.222656 206.332031 C 387.847656 203.449219 385.941406 201.277344 383.414062 200.804688 C 380.84375 200.320312 378.855469 201.570312 377.234375 204.210938 C 376.371094 205.613281 375.023438 206.71875 373.757812 208.109375 C 371.464844 206.214844 369.078125 206.191406 366.226562 207.363281 C 364.371094 208.125 362.019531 207.6875 359.890625 207.824219 C 356.011719 208.078125 353.417969 210.734375 352.683594 214.597656 C 351.511719 220.726562 350.21875 226.839844 348.730469 232.902344 C 347.769531 236.808594 345.03125 238.46875 341.007812 238.304688 C 334.355469 238.035156 327.703125 237.925781 321.058594 237.566406 C 319.164062 237.464844 317.191406 236.992188 315.453125 236.238281 C 307.3125 232.71875 299.921875 227.972656 293.144531 222.25 C 287.398438 217.398438 284.398438 211.296875 284.042969 203.722656 C 283.921875 201.078125 283.054688 198.375 282.046875 195.898438 C 280.789062 192.816406 277.84375 191.710938 274.808594 191.855469 C 270.664062 192.050781 266.503906 192.582031 262.429688 193.371094 C 254.277344 194.949219 246.648438 197.894531 239.972656 202.988281 C 239.195312 203.582031 238.464844 204.238281 237.703125 204.851562 C 235.796875 206.394531 233.84375 207.882812 231.984375 209.480469 C 228.191406 212.742188 226.324219 217.117188 225.414062 221.859375 C 224 229.214844 225.132812 236.277344 228.714844 242.875 C 229.324219 243.996094 229.265625 244.605469 228.3125 245.503906 C 222.660156 250.832031 217.097656 256.25 211.460938 261.597656 C 210.890625 262.136719 210.058594 262.402344 209.332031 262.761719 C 207.785156 263.539062 205.910156 263.964844 204.722656 265.109375 C 183.464844 285.535156 166.949219 309.117188 157.320312 337.191406 C 153.332031 348.832031 150.847656 360.789062 150.105469 373.109375 C 147.726562 412.746094 161.441406 446.277344 188.855469 474.441406 C 208.347656 494.472656 232.003906 507.976562 258.179688 517.28125 C 273.894531 522.863281 290.0625 526.554688 306.597656 528.695312 C 320.214844 530.460938 333.886719 531.300781 347.597656 530.875 C 387.257812 529.660156 425.140625 520.824219 461.253906 504.300781 C 467.988281 501.21875 475.140625 499.042969 482.101562 496.464844 C 484.167969 495.699219 486 494.699219 487.125 492.652344 C 487.363281 492.214844 488.109375 491.886719 488.65625 491.816406 C 492.378906 491.355469 495.164062 488.699219 495.515625 484.90625 C 495.910156 480.6875 496.355469 476.460938 496.367188 472.230469 C 496.402344 460.988281 492.242188 451.265625 485.125 442.710938 C 484.761719 442.269531 484.386719 441.839844 483.953125 441.335938 Z M 483.960938 441.335938 " fill-opacity="1" fill-rule="nonzero"/><path fill="#a6988a" d="M 201.945312 71.175781 C 202.421875 87.730469 206.011719 104.589844 216.574219 119.273438 C 219.28125 123.039062 222.933594 126.121094 226.070312 129.59375 C 226.589844 130.171875 226.890625 131.140625 226.925781 131.941406 C 227.109375 135.992188 229.289062 138.929688 232.859375 139.679688 C 235.386719 140.207031 237.585938 139.355469 239.265625 137.578125 C 240.730469 136.027344 242.023438 134.257812 243.085938 132.40625 C 247.726562 124.320312 252.039062 116.035156 256.875 108.066406 C 274.378906 79.226562 298.664062 57.761719 328.722656 42.679688 C 331.925781 41.074219 335.175781 39.542969 338.347656 37.882812 C 342.957031 35.460938 346.34375 31.855469 348.382812 27.042969 C 350.132812 22.921875 348.910156 19.984375 344.773438 18.285156 C 344.710938 18.257812 344.640625 18.25 344.589844 18.214844 C 337.691406 13.105469 330.339844 14.929688 323.039062 16.902344 C 320.03125 17.714844 317.105469 18.875 314.191406 20.003906 C 313.039062 20.453125 312.21875 20.398438 311.148438 19.699219 C 300.246094 12.535156 288.035156 8.9375 275.277344 7.234375 C 264.570312 5.804688 254.460938 8.816406 244.613281 12.667969 C 229.003906 18.773438 216.707031 28.761719 208.472656 43.550781 C 203.875 51.800781 201.882812 60.632812 201.941406 71.179688 Z M 201.945312 71.175781 " fill-opacity="1" fill-rule="nonzero"/><path fill="#000000" d="M 154.957031 327.730469 C 167.257812 301.355469 185.34375 279.460938 207.316406 260.632812 C 211.820312 256.773438 216.519531 253.144531 221.179688 249.367188 C 221.089844 249.085938 221.027344 248.769531 220.894531 248.476562 C 218.605469 243.328125 217.597656 237.890625 217.5 232.300781 C 217.394531 226.230469 218.464844 220.390625 222.558594 215.632812 C 225.019531 212.777344 227.683594 210.03125 230.582031 207.632812 C 240.609375 199.355469 252.273438 194.234375 264.621094 190.511719 C 266.273438 190.015625 267.941406 189.585938 270.085938 188.992188 C 269.191406 188.695312 268.792969 188.550781 268.386719 188.425781 C 258.039062 185.28125 251.542969 178.335938 248.546875 168.066406 C 245.546875 157.78125 247.941406 149.601562 255.542969 143.621094 C 258.734375 141.109375 262.375 139.457031 266.3125 138.707031 C 269.445312 138.113281 272.03125 136.632812 274.539062 134.871094 C 282.355469 129.386719 286.578125 121.960938 286.367188 112.304688 C 286.183594 103.855469 283.566406 96.03125 279.773438 88.5625 C 279.523438 88.0625 279.183594 87.601562 278.777344 86.953125 C 277.511719 88.429688 276.335938 89.734375 275.234375 91.097656 C 263.382812 105.710938 252.507812 120.890625 247.179688 139.300781 C 246.796875 140.625 245.945312 141.539062 244.433594 141.160156 C 242.898438 140.773438 242.625 139.519531 242.953125 138.207031 C 243.480469 136.125 244.019531 134.027344 244.820312 132.042969 C 245.40625 130.59375 244.980469 129.941406 243.863281 129.011719 C 240.710938 126.394531 237.691406 123.613281 234.683594 120.820312 C 233.710938 119.917969 232.941406 118.800781 232.078125 117.78125 C 231.859375 117.792969 231.640625 117.804688 231.421875 117.816406 C 230.183594 122.988281 228.800781 128.128906 227.765625 133.34375 C 227.234375 136 226.644531 138.941406 227.269531 141.46875 C 229.074219 148.792969 233.757812 153.679688 241.28125 155.460938 C 242.683594 155.796875 243.65625 156.351562 243.449219 157.898438 C 243.226562 159.554688 241.925781 160.007812 240.542969 159.789062 C 239.144531 159.566406 237.726562 159.152344 236.445312 158.550781 C 228.574219 154.847656 224.238281 148.4375 222.5 140.078125 C 222.359375 139.410156 222.15625 138.675781 221.75 138.160156 C 217.625 132.933594 213.214844 127.921875 209.34375 122.519531 C 200.46875 110.140625 195.609375 96.308594 195.914062 80.972656 C 196.277344 62.839844 201.417969 46.050781 211.785156 31.15625 C 220.882812 18.085938 233.167969 8.925781 248.472656 4.136719 C 261.699219 -0.00390625 275.082031 0.152344 288.527344 3.023438 C 298.734375 5.203125 308.394531 8.519531 316.230469 15.847656 C 316.648438 16.234375 317.644531 16.226562 318.300781 16.089844 C 321.421875 15.4375 324.488281 14.410156 327.636719 14.003906 C 337.773438 12.699219 346.460938 16.308594 350.246094 26.242188 C 350.3125 26.417969 350.449219 26.566406 350.648438 26.882812 C 351.226562 26.625 351.792969 26.324219 352.394531 26.125 C 356.34375 24.800781 360.21875 23.109375 364.269531 22.253906 C 376.605469 19.640625 388.15625 21.554688 398.382812 29.328125 C 401.433594 31.648438 403.925781 34.503906 405.449219 38.074219 C 407.832031 43.65625 405.949219 48.742188 400.476562 51.296875 C 398.839844 52.0625 397.058594 52.8125 395.292969 52.964844 C 387.242188 53.648438 379.171875 54.117188 371.109375 54.648438 C 370.382812 54.699219 369.652344 54.65625 368.894531 54.65625 C 372.457031 60.867188 375.847656 66.78125 379.234375 72.691406 C 383.964844 68.710938 387.652344 69.089844 391.554688 73.9375 C 391.960938 74.445312 392.367188 74.960938 392.707031 75.519531 C 397.421875 83.359375 399.785156 91.761719 398.503906 100.945312 C 398.0625 104.117188 397.320312 107.324219 394.902344 109.644531 C 393.988281 110.519531 393.839844 111.097656 394.113281 112.257812 C 398.757812 131.855469 401.605469 151.632812 399.3125 171.816406 C 398.359375 180.199219 395.953125 188.152344 391.011719 195.183594 C 390.574219 195.800781 390.503906 196.867188 390.636719 197.664062 C 391.660156 203.769531 392.851562 209.855469 393.8125 215.972656 C 394.039062 217.429688 394.546875 218.058594 395.925781 218.507812 C 417.558594 225.550781 436.683594 236.734375 452.984375 252.730469 C 464.484375 264.015625 474.082031 276.726562 482.453125 290.429688 C 491.652344 305.484375 500.328125 320.8125 505.691406 337.730469 C 508.308594 345.984375 510.511719 354.359375 512.945312 362.839844 C 513.089844 362.839844 513.40625 362.859375 513.71875 362.839844 C 526.34375 361.890625 538.957031 360.714844 551.597656 360.058594 C 561.824219 359.53125 572.09375 359.777344 582.328125 359.371094 C 586.21875 359.214844 588.597656 360.871094 590.433594 363.925781 C 590.503906 364.035156 590.578125 364.144531 590.648438 364.25 C 599.421875 376.703125 607.34375 389.65625 613.980469 403.382812 C 614.851562 405.183594 614.742188 406.894531 613.800781 408.40625 C 610.980469 412.953125 608.066406 417.453125 604.980469 421.816406 C 604.246094 422.859375 602.765625 423.742188 601.488281 423.984375 C 589.761719 426.214844 578.015625 428.328125 566.261719 430.382812 C 564.035156 430.773438 562.53125 431.675781 561.125 433.59375 C 553.097656 444.5 543.914062 454.347656 533.894531 463.503906 C 520.390625 475.835938 505.996094 486.917969 490.273438 496.234375 C 445.316406 522.875 396.628906 536.648438 344.453125 538.226562 C 318.859375 538.996094 293.613281 536.398438 268.839844 529.832031 C 238.914062 521.898438 211.449219 509.023438 188.109375 488.34375 C 160.0625 463.496094 143.300781 432.792969 141.167969 394.921875 C 139.84375 371.367188 145.035156 349.019531 154.960938 327.730469 Z M 305.453125 60.464844 C 297.617188 67.898438 289.886719 75.242188 281.863281 82.859375 C 284.53125 84.691406 286.671875 86.28125 288.925781 87.683594 C 294.710938 91.285156 300.761719 94.308594 307.574219 95.464844 C 312.554688 96.3125 315.441406 94.09375 315.347656 89.097656 C 315.171875 79.632812 311.878906 71.160156 306.652344 63.363281 C 306.207031 62.699219 306.019531 61.867188 305.453125 60.464844 Z M 307.839844 53.5625 C 308.78125 52.828125 308.964844 52.160156 308.585938 51.078125 C 306.253906 44.378906 302.34375 38.789062 296.8125 34.363281 C 296.398438 34.03125 295.382812 33.875 295.015625 34.140625 C 288.328125 39.019531 282.144531 44.492188 276.671875 50.023438 C 281.621094 55.867188 286.445312 61.566406 291.367188 67.386719 C 293.160156 65.789062 295.28125 63.792969 297.503906 61.933594 C 300.90625 59.089844 304.34375 56.292969 307.839844 53.5625 Z M 278.457031 80.664062 C 281.058594 77.742188 283.878906 75.015625 286.507812 72.113281 C 286.953125 71.621094 287.328125 70.488281 287.070312 70.027344 C 283.578125 63.851562 279.203125 58.363281 273.753906 53.773438 C 273.660156 53.691406 273.519531 53.671875 273.398438 53.625 C 273.214844 53.535156 273.027344 53.449219 272.84375 53.359375 C 266.191406 61.457031 259.542969 69.558594 252.800781 77.761719 C 257.824219 83.292969 262.546875 88.488281 267.253906 93.664062 C 271.054688 89.238281 274.695312 84.894531 278.460938 80.664062 Z M 234.695312 114.40625 C 238.207031 118.898438 242.121094 122.9375 246.640625 125.738281 C 252.5 116.164062 258.292969 106.6875 264.292969 96.886719 C 260.027344 92.054688 255.429688 86.851562 250.679688 81.472656 C 249.183594 83.800781 247.675781 85.847656 246.488281 88.070312 C 242.378906 95.753906 238.390625 103.511719 234.332031 111.222656 C 233.707031 112.417969 233.855469 113.332031 234.699219 114.40625 Z M 223.21875 132.425781 C 225.199219 122.894531 227.929688 113.484375 232.34375 104.851562 C 218.570312 91.828125 208.914062 76.566406 204.050781 58.011719 C 195.054688 86.914062 202.65625 111.316406 223.21875 132.425781 Z M 218.75 29.117188 C 217.296875 31.105469 215.640625 33.105469 214.289062 35.289062 C 212.503906 38.167969 211.058594 41.253906 209.273438 44.132812 C 207.121094 47.601562 207.148438 51.195312 207.875 55.042969 C 210.160156 67.121094 215.894531 77.601562 222.902344 87.4375 C 225.800781 91.507812 229.347656 95.121094 232.625 98.921875 C 233.074219 99.449219 233.660156 99.863281 233.957031 100.121094 C 240.355469 89.914062 246.707031 79.78125 253.019531 69.707031 C 241.800781 56.417969 230.367188 42.875 218.75 29.117188 Z M 255.773438 66.015625 C 264.511719 56.710938 273.148438 47.519531 281.800781 38.308594 C 271.621094 27.691406 232.515625 19.34375 221.582031 26.054688 C 233.066406 39.480469 244.503906 52.84375 255.773438 66.011719 Z M 276.15625 5.710938 C 258.65625 4.039062 242.730469 8.511719 228.554688 19.730469 C 249.707031 18.347656 268.65625 23.523438 286.019531 35.453125 C 294.082031 28.871094 302.757812 22.816406 312.761719 18.246094 C 302 9.25 289.15625 6.949219 276.15625 5.710938 Z M 315.972656 22.597656 C 315.605469 22.355469 314.90625 22.230469 314.554688 22.414062 C 309.445312 25.09375 304.367188 27.839844 298.882812 30.78125 C 305.585938 36.089844 310.074219 42.21875 312.6875 49.667969 C 318.261719 46.425781 323.601562 43.320312 329.074219 40.132812 C 326.8125 32.800781 322.445312 26.917969 315.972656 22.597656 Z M 346.082031 27.800781 C 343.5625 20.964844 337.5 17.414062 329.332031 18.230469 C 327.074219 18.457031 324.84375 19.023438 322.613281 19.488281 C 321.8125 19.65625 321.042969 19.96875 319.839844 20.351562 C 326.46875 25.082031 330.625 31.261719 333.253906 38.570312 C 335.570312 37.996094 337.773438 37.46875 339.957031 36.882812 C 340.253906 36.800781 340.480469 36.40625 340.707031 36.125 C 342.269531 34.167969 343.714844 32.09375 345.4375 30.289062 C 346.25 29.441406 346.484375 28.894531 346.082031 27.800781 Z M 385.253906 49.722656 C 389.1875 49.523438 393.1875 48.898438 396.980469 47.84375 C 402.207031 46.398438 403.394531 42.863281 400.515625 38.234375 C 396.871094 32.378906 391.25 29.121094 384.839844 27.257812 C 372.015625 23.53125 360.0625 26.1875 348.851562 32.882812 C 347.183594 33.878906 345.925781 35.613281 344.609375 37.117188 C 342.667969 39.335938 340.964844 41.375 337.679688 42.214844 C 328.722656 44.507812 321.019531 49.507812 313.546875 54.808594 C 311.375 56.347656 309.269531 57.988281 307.136719 59.582031 C 309.0625 59.144531 310.289062 60.046875 311.761719 61.140625 C 321.070312 68.074219 331.160156 73.355469 342.851562 74.949219 C 343.875 75.085938 344.941406 75.03125 345.972656 74.929688 C 349.390625 74.589844 351.367188 72.824219 351.832031 69.417969 C 352.554688 64.132812 351.242188 59.191406 348.867188 54.507812 C 348.261719 53.316406 347.335938 51.980469 348.464844 50.957031 C 349.195312 50.292969 350.660156 50.285156 351.804688 50.265625 C 354.015625 50.222656 356.230469 50.480469 358.445312 50.433594 C 367.378906 50.257812 376.320312 50.167969 385.246094 49.71875 Z M 375.15625 74.8125 C 371.847656 68.820312 368.472656 62.863281 365.101562 56.90625 C 364.179688 55.277344 362.851562 54.601562 360.886719 54.777344 C 358.628906 54.980469 356.332031 54.828125 353.957031 54.828125 C 354.703125 58.03125 355.625 60.910156 355.976562 63.855469 C 356.269531 66.339844 356.210938 68.964844 355.746094 71.417969 C 354.902344 75.828125 351.324219 78.777344 346.863281 79.308594 C 341.3125 79.972656 336.050781 78.640625 331.015625 76.605469 C 325.53125 74.386719 320.226562 71.738281 314.839844 69.277344 C 315.453125 70.847656 316.183594 72.605469 316.824219 74.402344 C 318.550781 79.207031 319.941406 84.078125 319.820312 89.273438 C 319.640625 96.789062 314.574219 101.074219 307.140625 99.90625 C 300.523438 98.871094 294.566406 96.105469 288.8125 92.824219 C 287.863281 92.277344 286.929688 91.699219 285.628906 90.917969 C 286.328125 92.785156 286.914062 94.277344 287.445312 95.789062 C 289.835938 102.621094 291.417969 109.5625 290.5625 116.886719 C 289.664062 124.59375 286.058594 130.808594 280.371094 135.9375 C 280.046875 136.230469 279.730469 136.535156 279.058594 137.167969 C 284.785156 136.84375 290.066406 136.550781 295.570312 136.242188 C 293.847656 131.953125 296.5 129.300781 299.25 126.839844 C 308.253906 118.796875 317.730469 111.472656 329.628906 108.109375 C 330.066406 107.988281 330.542969 107.65625 330.929688 107.746094 C 333.542969 108.347656 334.910156 106.601562 336.484375 105.046875 C 338.601562 102.957031 341.066406 101.390625 344.066406 100.800781 C 344.488281 100.714844 344.914062 100.511719 345.28125 100.273438 C 348.804688 97.949219 352.1875 95.375 355.863281 93.332031 C 361.15625 90.382812 366.671875 87.832031 372.054688 85.046875 C 372.652344 84.738281 373.238281 84.054688 373.453125 83.421875 C 374.183594 81.261719 374.789062 79.058594 375.328125 76.839844 C 375.484375 76.207031 375.464844 75.355469 375.160156 74.808594 Z M 301.078125 135.851562 C 306.046875 140.585938 311.238281 145.054688 317.296875 148.371094 C 320.996094 150.390625 321.78125 150.289062 324.945312 147.527344 C 329.371094 143.671875 333.714844 139.722656 338.125 135.847656 C 340.242188 133.988281 340.898438 131.785156 339.816406 129.179688 C 337.433594 123.417969 334.996094 117.679688 332.589844 111.945312 C 319.761719 115.269531 310.167969 122.832031 301.117188 131.226562 C 298.988281 133.195312 299.019531 133.890625 301.074219 135.855469 Z M 375.605469 105.425781 C 375.101562 100.191406 374.335938 94.980469 373.683594 89.765625 C 373.367188 89.609375 373.046875 89.457031 372.730469 89.300781 C 365.167969 93.496094 357.605469 97.695312 350.042969 101.890625 C 348.984375 102.476562 348.921875 103.234375 349.644531 104.121094 C 353.191406 108.464844 356.734375 112.804688 360.300781 117.132812 C 361.386719 118.449219 362.480469 118.523438 363.960938 117.453125 C 366.441406 115.660156 369.046875 114.027344 371.710938 112.519531 C 374.53125 110.917969 375.90625 108.539062 375.609375 105.425781 Z M 394.414062 95.90625 C 394.242188 89.808594 392.648438 84.046875 389.664062 78.714844 C 388.972656 77.476562 388.066406 76.324219 387.097656 75.28125 C 386.054688 74.15625 384.753906 73.566406 383.273438 74.636719 C 381.851562 75.65625 381.394531 77.355469 382.0625 78.941406 C 384.097656 83.746094 386.226562 88.511719 388.132812 93.363281 C 389.675781 97.296875 390.949219 101.335938 392.425781 105.554688 C 394.070312 102.382812 394.503906 99.164062 394.410156 95.90625 Z M 392.164062 183.058594 C 395.355469 174.210938 395.996094 164.945312 395.671875 155.636719 C 394.941406 134.824219 391.453125 114.519531 384.007812 94.992188 C 382.542969 91.15625 380.878906 87.394531 379.292969 83.601562 C 379.050781 83.023438 378.734375 82.46875 378.335938 81.671875 C 377.359375 84.726562 376.660156 87.34375 377.558594 90.441406 C 379.140625 95.886719 380.078125 101.5 379.792969 107.25 C 379.632812 110.542969 378.359375 113.234375 375.65625 115.078125 C 371.992188 117.582031 368.253906 119.972656 364.488281 122.320312 C 362.511719 123.550781 360.480469 123.066406 358.867188 121.640625 C 356.871094 119.878906 354.957031 117.976562 353.261719 115.921875 C 350.527344 112.597656 348.035156 109.082031 345.355469 105.710938 C 345.035156 105.3125 344.101562 105.015625 343.644531 105.191406 C 340.800781 106.253906 338.699219 108.316406 337.023438 110.773438 C 336.75 111.179688 336.984375 112.109375 337.242188 112.679688 C 339.136719 116.90625 341.121094 121.089844 343.027344 125.308594 C 343.484375 126.3125 343.78125 127.390625 344.117188 128.441406 C 345.375 132.363281 344.605469 135.832031 341.566406 138.632812 C 337.585938 142.304688 333.519531 145.890625 329.460938 149.480469 C 328.191406 150.605469 326.871094 151.671875 325.527344 152.710938 C 323.515625 154.265625 321.171875 154.734375 318.878906 153.746094 C 316.023438 152.515625 313.167969 151.144531 310.617188 149.394531 C 307.230469 147.078125 304.191406 144.269531 300.890625 141.820312 C 299.933594 141.105469 298.566406 140.449219 297.441406 140.523438 C 288.660156 141.128906 279.902344 142.082031 271.121094 142.539062 C 268.636719 142.667969 266.28125 142.78125 263.957031 143.675781 C 254.421875 147.347656 250.316406 154.78125 252.335938 164.792969 C 254.566406 175.847656 262.238281 183.308594 273.117188 184.816406 C 277.386719 185.410156 281.457031 184.542969 285.109375 182.199219 C 289.199219 179.582031 290.929688 175.660156 290.992188 170.910156 C 291.003906 170.457031 290.773438 169.886719 290.972656 169.566406 C 291.46875 168.761719 292.011719 167.6875 292.78125 167.414062 C 293.992188 166.988281 295.070312 167.90625 295.117188 169.128906 C 295.207031 171.3125 295.285156 173.585938 294.804688 175.695312 C 293.523438 181.285156 289.945312 185.097656 284.753906 187.433594 C 283.929688 187.804688 283.085938 188.128906 282.011719 188.570312 C 282.4375 190.476562 282.753906 192.394531 283.308594 194.25 C 285.496094 201.550781 287.671875 208.855469 290.070312 216.082031 C 290.570312 217.589844 291.824219 219.011719 293.0625 220.089844 C 306.320312 231.628906 321.414062 237.480469 339.21875 234.6875 C 343.378906 234.03125 344.214844 233.269531 345.21875 229.164062 C 346.902344 222.261719 347.175781 215.21875 347.28125 208.167969 C 347.289062 207.566406 346.625 206.601562 346.058594 206.390625 C 332.890625 201.503906 321.660156 193.476562 310.84375 184.773438 C 309.800781 183.9375 309.351562 182.851562 310.109375 181.683594 C 310.945312 180.390625 312.265625 180.441406 313.382812 181.242188 C 315.765625 182.953125 318.035156 184.828125 320.382812 186.585938 C 329.40625 193.335938 338.796875 199.472656 349.691406 202.789062 C 356.882812 204.984375 364.230469 206.15625 371.667969 204.019531 C 382.433594 200.917969 388.542969 193.097656 392.164062 183.046875 Z M 351.128906 216.183594 C 350.742188 220.726562 350.328125 225.285156 349.519531 229.765625 C 348.347656 236.25 345.640625 238.292969 339.132812 239.207031 C 322.394531 241.558594 307.570312 237.058594 294.375 226.875 C 291.265625 224.472656 288.648438 221.40625 285.992188 218.476562 C 285.203125 217.601562 284.976562 216.175781 284.621094 214.957031 C 283.203125 210.085938 281.832031 205.203125 280.394531 200.152344 C 279.21875 200.367188 278.132812 200.507812 277.074219 200.765625 C 268.699219 202.804688 260.355469 204.914062 252.65625 208.960938 C 248.597656 211.09375 245.066406 213.871094 242.597656 217.761719 C 238.65625 223.96875 238.507812 230.636719 245.757812 235.648438 C 254.355469 241.601562 263.859375 245.601562 273.921875 247.992188 C 285.078125 250.644531 296.390625 252.664062 307.675781 254.726562 C 323.15625 257.554688 338.621094 260.378906 352.960938 267.277344 C 354.300781 267.917969 355.609375 268.621094 356.886719 269.273438 C 363.796875 259.199219 370.136719 248.941406 372.4375 236.679688 C 374.195312 227.328125 373.574219 218.136719 371.613281 208.726562 C 364.832031 210.160156 358.203125 209.472656 351.160156 207.914062 C 351.160156 210.863281 351.34375 213.539062 351.121094 216.183594 Z M 608.992188 402.550781 C 602.472656 389.875 594.746094 377.945312 586.65625 366.226562 C 585.234375 364.164062 583.621094 363.3125 581.136719 363.414062 C 569.398438 363.902344 557.640625 364.023438 545.914062 364.753906 C 532.308594 365.609375 518.726562 366.882812 505.148438 368.136719 C 498.992188 368.703125 492.875 369.671875 486.261719 370.523438 C 490.59375 386.1875 494.859375 401.609375 499.175781 417.230469 C 501.453125 414.839844 503.753906 412.488281 505.949219 410.042969 C 506.21875 409.738281 506.085938 408.90625 505.917969 408.390625 C 502.898438 398.964844 500.023438 389.480469 496.714844 380.152344 C 494.914062 375.070312 495.066406 374.089844 500.347656 373.511719 C 514.550781 371.964844 528.761719 370.523438 542.980469 369.140625 C 551.292969 368.328125 559.613281 367.554688 567.945312 367.070312 C 571.824219 366.84375 575.75 367.304688 579.644531 367.582031 C 580.300781 367.625 581.132812 368.1875 581.5 368.761719 C 586.328125 376.28125 591.117188 383.828125 595.835938 391.417969 C 596.929688 393.183594 597.777344 395.109375 598.625 397.011719 C 599.78125 399.605469 598.8125 401.5625 595.992188 402.097656 C 590.035156 403.222656 584.074219 404.394531 578.070312 405.230469 C 566.121094 406.894531 554.144531 408.34375 542.175781 409.875 C 542.109375 409.882812 542.039062 409.90625 541.980469 409.894531 C 536.992188 409.035156 534.609375 412.253906 532.363281 416.316406 C 558.363281 412.410156 584.425781 410.648438 610.261719 405.21875 C 609.796875 404.242188 609.414062 403.382812 608.980469 402.542969 Z M 483.328125 377.019531 C 481.484375 382.546875 479.238281 387.878906 480.65625 394.035156 C 482.644531 402.652344 485.589844 410.910156 488.828125 419.09375 C 489.898438 421.808594 490.835938 424.574219 491.917969 427.550781 C 493.292969 425.511719 494.535156 423.695312 495.738281 421.84375 C 495.914062 421.570312 495.972656 421.105469 495.878906 420.785156 C 491.710938 406.195312 487.519531 391.609375 483.328125 377.019531 Z M 543.339844 398.347656 C 542.699219 400.699219 541.570312 402.921875 540.519531 405.535156 C 558.367188 403.289062 576.207031 401.042969 594.421875 398.746094 C 593.996094 397.640625 593.855469 397.023438 593.546875 396.507812 C 588.6875 388.398438 583.832031 380.289062 578.890625 372.238281 C 578.542969 371.671875 577.492188 371.226562 576.785156 371.246094 C 569.886719 371.476562 562.976562 371.648438 556.089844 372.171875 C 546.988281 372.867188 537.910156 373.820312 528.828125 374.75 C 520.070312 375.644531 511.324219 376.652344 502.578125 377.617188 C 502.015625 377.679688 501.464844 377.867188 501.167969 377.9375 C 504.121094 387.378906 507.050781 396.746094 510.03125 406.292969 C 510.902344 405.539062 511.851562 404.710938 512.8125 403.894531 C 517.976562 399.476562 523.246094 395.207031 529.339844 392.101562 C 530.84375 391.332031 532.449219 390.757812 533.988281 390.058594 C 536.6875 388.828125 538.949219 389.746094 541.003906 391.503906 C 543.113281 393.308594 544.066406 395.679688 543.335938 398.34375 Z M 590.660156 421.480469 C 593.683594 420.980469 596.730469 420.617188 599.757812 420.132812 C 600.359375 420.035156 601.167969 419.863281 601.472656 419.4375 C 603.625 416.433594 605.671875 413.355469 608.007812 409.933594 C 602.453125 410.960938 597.421875 412.0625 592.335938 412.796875 C 581.753906 414.316406 571.140625 415.621094 560.546875 417.050781 C 550.664062 418.378906 540.8125 419.988281 530.894531 421 C 526.507812 421.441406 525.648438 425.074219 523.117188 427.355469 C 526.132812 429.382812 529.203125 430.503906 532.667969 430.160156 C 537.855469 429.648438 543.078125 429.300781 548.226562 428.492188 C 562.390625 426.265625 576.519531 423.816406 590.660156 421.480469 Z M 556.894531 432.621094 C 556.816406 432.46875 556.734375 432.316406 556.65625 432.164062 C 552.917969 432.542969 549.183594 432.957031 545.449219 433.292969 C 540.320312 433.746094 535.195312 434.277344 530.054688 434.519531 C 526.375 434.695312 523.089844 432.980469 520.335938 430.851562 C 518.011719 429.054688 517.472656 427.421875 519.398438 425.035156 C 524.679688 418.480469 529.90625 411.875 535.023438 405.195312 C 536.558594 403.195312 537.761719 400.921875 538.9375 398.675781 C 539.628906 397.359375 539.640625 395.914062 538.46875 394.679688 C 537.203125 393.34375 535.757812 393.441406 534.386719 394.277344 C 530.003906 396.949219 525.386719 399.355469 521.378906 402.515625 C 512.183594 409.765625 503.488281 417.609375 497.222656 427.679688 C 494.679688 431.761719 492.535156 436.089844 490.210938 440.308594 C 501.640625 450.636719 507.890625 463.257812 508.027344 479.21875 C 526.234375 465.351562 542.878906 450.359375 556.898438 432.617188 Z M 479.386719 451.753906 C 479.054688 451.890625 478.804688 452.230469 478.476562 452.503906 C 479.820312 454.945312 481.128906 457.328125 482.535156 459.894531 C 487.160156 458.152344 491.785156 456.40625 496.78125 454.519531 C 494.832031 451.992188 493.234375 449.875 491.578125 447.808594 C 491.359375 447.542969 490.746094 447.308594 490.449219 447.421875 C 486.746094 448.824219 483.0625 450.28125 479.382812 451.753906 Z M 487.308594 444.078125 C 483.589844 440.210938 478.285156 439.824219 471.6875 442.992188 C 473.125 444.902344 474.546875 446.785156 475.871094 448.542969 C 479.867188 446.980469 483.582031 445.53125 487.308594 444.078125 Z M 491.707031 490.15625 C 493.203125 489.214844 494.492188 488.421875 495.761719 487.59375 C 497.347656 486.5625 498.84375 485.371094 500.507812 484.492188 C 502.578125 483.394531 503.191406 481.667969 503.246094 479.277344 C 499.132812 481.070312 495.140625 482.8125 491.070312 484.585938 C 491.265625 486.296875 491.460938 488.023438 491.707031 490.15625 Z M 490.078125 480.34375 C 492.503906 479.375 494.746094 478.53125 496.941406 477.589844 C 499.078125 476.675781 501.179688 475.660156 503.496094 474.59375 C 503.226562 472.859375 502.9375 471.03125 502.664062 469.246094 C 497.953125 471.449219 493.394531 473.589844 488.738281 475.769531 C 489.132812 477.113281 489.546875 478.53125 490.078125 480.347656 Z M 500.207031 465.53125 C 501.113281 465.085938 501.40625 464.507812 500.953125 463.507812 C 500.132812 461.691406 499.410156 459.824219 498.707031 458.132812 C 494.292969 459.832031 490.246094 461.429688 486.171875 462.941406 C 484.679688 463.496094 484.089844 464.140625 484.921875 465.78125 C 485.824219 467.5625 486.4375 469.488281 487.390625 471.902344 C 491.777344 469.722656 495.988281 467.621094 500.210938 465.527344 Z M 173.875 467.1875 C 190.859375 488.292969 212.542969 503.191406 237.125 514.09375 C 256.269531 522.585938 276.300781 527.972656 296.992188 531.046875 C 316.707031 533.976562 336.515625 534.695312 356.371094 533.261719 C 402.316406 529.953125 445.398438 517.113281 485.363281 494.042969 C 486.585938 493.335938 487.320312 492.488281 487.085938 491.117188 C 486.355469 486.769531 485.957031 482.3125 484.683594 478.128906 C 481.285156 466.960938 476.585938 456.382812 469.316406 447.085938 C 465.546875 442.265625 461.019531 438.542969 455.089844 436.902344 C 452.6875 436.238281 450.074219 436.3125 447.558594 436.058594 C 438.929688 435.175781 430.308594 434.15625 421.660156 433.453125 C 413.726562 432.808594 405.769531 432.394531 397.808594 432.054688 C 383.269531 431.4375 368.722656 430.472656 354.179688 430.542969 C 341.410156 430.605469 328.632812 431.742188 315.878906 432.65625 C 305.597656 433.394531 295.316406 434.285156 285.085938 435.523438 C 276.746094 436.535156 268.480469 438.179688 260.183594 439.527344 C 258.316406 439.832031 256.449219 440.125 254.570312 440.335938 C 253.191406 440.488281 251.816406 440.289062 251.542969 438.621094 C 251.269531 436.957031 252.4375 436.300781 253.847656 436.035156 C 257.050781 435.433594 260.242188 434.722656 263.476562 434.332031 C 265.570312 434.082031 265.964844 433.097656 265.769531 431.246094 C 264.75 421.714844 263.996094 412.148438 262.785156 402.640625 C 260.382812 383.800781 257.128906 365.09375 252.699219 346.617188 C 250.84375 338.886719 248.640625 331.242188 246.582031 323.558594 C 246.261719 322.367188 245.972656 321.148438 247.429688 320.558594 C 248.914062 319.960938 249.898438 320.859375 250.328125 322.121094 C 251.53125 325.703125 252.679688 329.304688 253.691406 332.949219 C 259.320312 353.289062 263.347656 373.949219 266.136719 394.851562 C 267.441406 404.617188 268.65625 414.394531 269.804688 424.175781 C 270.140625 427.003906 270.132812 429.875 270.296875 433.144531 C 325.65625 424.484375 380.847656 424.246094 436.433594 430.617188 C 436.433594 428.742188 436.429688 427.203125 436.433594 425.671875 C 436.464844 416.078125 436.707031 406.476562 436.472656 396.886719 C 436.171875 384.59375 434.179688 372.472656 431.976562 360.394531 C 431.351562 356.992188 430.8125 353.574219 430.269531 350.160156 C 430.148438 349.390625 430.144531 348.597656 430.148438 347.816406 C 430.15625 346.652344 430.628906 345.523438 431.882812 345.722656 C 432.667969 345.847656 433.746094 346.765625 433.9375 347.515625 C 434.5625 349.972656 434.839844 352.515625 435.242188 355.023438 C 436.898438 365.453125 438.789062 375.859375 440.140625 386.324219 C 441.597656 397.613281 441.441406 408.992188 441.066406 420.359375 C 440.953125 423.871094 441.050781 427.386719 441.050781 431.214844 C 444.175781 431.484375 447.273438 431.898438 450.378906 432.003906 C 456.648438 432.214844 462.019531 434.636719 466.859375 438.40625 C 467.953125 439.257812 468.878906 439.703125 470.1875 439 C 470.75 438.695312 471.421875 438.597656 472.039062 438.382812 C 476.867188 436.699219 481.707031 435.496094 486.601562 438.269531 C 487.714844 435.894531 488.726562 433.722656 489.707031 431.632812 C 489.058594 430.847656 488.207031 430.210938 487.898438 429.375 C 484.585938 420.316406 481.292969 411.25 478.148438 402.128906 C 477.261719 399.554688 476.613281 396.824219 476.363281 394.121094 C 476.078125 391.046875 475.808594 387.785156 476.53125 384.847656 C 477.777344 379.75 479.671875 374.792969 481.527344 369.863281 C 482.40625 367.53125 484.402344 366.238281 486.953125 365.933594 C 493.171875 365.183594 499.382812 364.40625 505.597656 363.636719 C 506.425781 363.535156 507.25 363.394531 508.359375 363.222656 C 506.648438 357.058594 504.992188 351.105469 503.339844 345.140625 C 498.242188 326.710938 489.230469 310.121094 479.394531 293.902344 C 470 278.410156 459.125 264.160156 445.648438 251.929688 C 431.058594 238.6875 414.230469 229.382812 395.804688 222.757812 C 395.507812 222.652344 395.179688 222.628906 394.707031 222.539062 C 394.824219 225.035156 394.949219 227.421875 395.046875 229.8125 C 395.488281 240.8125 394.144531 251.558594 390.480469 261.984375 C 390.28125 262.554688 390.613281 263.636719 391.074219 264.066406 C 400.234375 272.523438 403.617188 283.058594 402.25 295.226562 C 401.53125 301.640625 400.300781 307.996094 399.609375 314.410156 C 399.3125 317.15625 399.496094 320.050781 400.015625 322.769531 C 401.460938 330.382812 406.972656 333.71875 414.480469 331.71875 C 416.234375 331.25 417.886719 330.433594 419.605469 329.808594 C 421.636719 329.070312 423.417969 330.042969 423.214844 331.875 C 423.136719 332.582031 422.550781 333.601562 421.949219 333.828125 C 419.40625 334.800781 416.8125 335.828125 414.144531 336.300781 C 403.933594 338.101562 396.488281 332.269531 395.285156 321.992188 C 394.410156 314.523438 395.796875 307.285156 397.132812 300.042969 C 398.828125 290.84375 398.601562 281.953125 393.523438 273.746094 C 392.132812 271.5 390.371094 269.488281 388.546875 267.058594 C 387.136719 269.6875 385.992188 271.859375 384.804688 274.011719 C 384.300781 274.921875 383.773438 275.832031 383.136719 276.652344 C 382.289062 277.753906 381.144531 278.269531 379.90625 277.339844 C 378.769531 276.492188 378.910156 275.335938 379.542969 274.1875 C 380.929688 271.675781 382.3125 269.160156 383.679688 266.636719 C 383.980469 266.082031 384.203125 265.480469 384.507812 264.804688 C 381.988281 263.417969 379.464844 262.699219 376.71875 262.851562 C 375.394531 262.929688 374.0625 262.851562 373.867188 261.230469 C 373.65625 259.511719 375.007812 258.8125 376.371094 258.917969 C 379.570312 259.175781 382.75 259.707031 386.339844 260.179688 C 393.390625 240.675781 390.640625 220.570312 387.101562 200.410156 C 384.285156 202.335938 381.761719 204.273438 379.035156 205.859375 C 375.660156 207.824219 375.558594 207.703125 376.390625 211.8125 C 379.449219 226.851562 377.746094 241.304688 370.8125 255.023438 C 368.757812 259.085938 366.160156 262.875 363.828125 266.800781 C 362.796875 268.539062 361.804688 270.292969 360.796875 272.046875 C 359.316406 274.621094 356.914062 274.75 354.382812 273.308594 C 350.613281 271.15625 346.613281 269.320312 342.554688 267.769531 C 331.042969 263.363281 318.9375 261.292969 306.863281 259.128906 C 292.492188 256.554688 277.972656 254.636719 264.125 249.683594 C 256.539062 246.972656 249.285156 243.628906 242.707031 238.894531 C 233.664062 232.386719 234.03125 223.144531 238.609375 215.773438 C 241.910156 210.460938 246.710938 206.800781 252.328125 204.171875 C 260.546875 200.335938 269.300781 198.261719 278.117188 196.394531 C 278.492188 196.3125 278.867188 196.226562 279.246094 196.140625 C 279.277344 195.886719 279.351562 195.683594 279.316406 195.507812 C 279.082031 194.425781 278.824219 193.347656 278.492188 191.921875 C 276.445312 192.238281 274.378906 192.402344 272.386719 192.882812 C 258.472656 196.234375 245.511719 201.714844 234.089844 210.472656 C 232.175781 211.9375 230.445312 213.640625 228.691406 215.300781 C 224.582031 219.195312 222.183594 223.929688 222.023438 229.648438 C 221.652344 242.640625 225.578125 253.453125 237.738281 259.9375 C 240.667969 261.496094 243.660156 262.980469 246.734375 264.222656 C 258.222656 268.871094 270.253906 271.484375 282.425781 273.605469 C 292.25 275.316406 302.035156 277.246094 311.832031 279.117188 C 312.847656 279.3125 313.835938 279.695312 314.796875 280.089844 C 316.058594 280.605469 316.972656 281.511719 316.46875 282.96875 C 315.921875 284.546875 314.601562 284.515625 313.210938 284.195312 C 307.5625 282.878906 301.9375 281.4375 296.253906 280.332031 C 285.566406 278.253906 274.75 276.742188 264.15625 274.289062 C 256.828125 272.585938 249.65625 270 242.632812 267.253906 C 235.230469 264.351562 228.390625 260.375 223.582031 253.316406 C 220.8125 255.460938 218.117188 257.480469 215.503906 259.597656 C 193.8125 277.179688 175.578125 297.683594 162.5 322.515625 C 154.054688 338.542969 148.320312 355.476562 146.308594 373.507812 C 142.390625 408.5625 151.847656 439.804688 173.898438 467.214844 Z M 173.875 467.1875 " fill-opacity="1" fill-rule="nonzero"/><path fill="#000000" d="M 583.121094 325.054688 C 582.871094 325.640625 582.558594 326.371094 582.054688 326.644531 C 581.390625 327.015625 580.398438 327.324219 579.757812 327.085938 C 579.121094 326.84375 578.746094 325.902344 578.28125 325.300781 C 578.695312 324.285156 578.992188 323.492188 579.332031 322.722656 C 584.347656 311.320312 589.367188 299.925781 594.375 288.519531 C 594.996094 287.105469 595.316406 285.300781 597.503906 285.796875 C 598.929688 286.117188 599.191406 287.46875 598.121094 289.988281 C 593.160156 301.691406 588.140625 313.375 583.121094 325.054688 Z M 583.121094 325.054688 " fill-opacity="1" fill-rule="nonzero"/><path fill="#000000" d="M 551.414062 310.730469 C 550.761719 316.300781 550.09375 321.867188 549.449219 327.4375 C 549.304688 328.71875 548.621094 329.738281 547.378906 329.511719 C 546.589844 329.371094 545.769531 328.410156 545.335938 327.613281 C 545.003906 327.011719 545.269531 326.089844 545.269531 324.960938 C 546.234375 317.933594 547.238281 310.566406 548.253906 303.203125 C 548.417969 302.011719 548.894531 300.957031 550.304688 301.050781 C 551.769531 301.144531 552.300781 302.222656 552.191406 303.535156 C 551.992188 305.9375 551.699219 308.332031 551.417969 310.730469 Z M 551.414062 310.730469 " fill-opacity="1" fill-rule="nonzero"/><path fill="#000000" d="M 610.375 349.683594 C 609.011719 350.402344 607.476562 349.402344 607.464844 347.609375 C 607.609375 347.324219 607.773438 346.730469 608.140625 346.308594 C 612.484375 341.265625 616.84375 336.234375 621.234375 331.234375 C 622.042969 330.308594 623.128906 329.921875 624.171875 330.824219 C 625.191406 331.710938 624.96875 332.792969 624.246094 333.804688 C 624.015625 334.121094 623.785156 334.4375 623.53125 334.738281 C 619.789062 339.175781 616.046875 343.621094 612.277344 348.039062 C 611.734375 348.671875 611.101562 349.300781 610.378906 349.683594 Z M 610.375 349.683594 " fill-opacity="1" fill-rule="nonzero"/><path fill="#000000" d="M 593.597656 339.496094 C 592.917969 340.6875 592.046875 341.804688 590.503906 341.03125 C 588.847656 340.203125 589.222656 338.789062 589.925781 337.511719 C 591.621094 334.441406 593.363281 331.390625 595.128906 328.363281 C 595.582031 327.585938 596.089844 326.746094 596.792969 326.234375 C 597.335938 325.84375 598.285156 325.683594 598.925781 325.867188 C 599.453125 326.015625 599.792969 326.820312 600.167969 327.285156 C 599.929688 327.964844 599.835938 328.414062 599.621094 328.800781 C 597.625 332.375 595.617188 335.941406 593.59375 339.496094 Z M 593.597656 339.496094 " fill-opacity="1" fill-rule="nonzero"/><path fill="#000000" d="M 567.707031 312.300781 C 567.03125 312.222656 566.460938 311.167969 565.914062 310.617188 C 566.945312 306.867188 567.769531 303.523438 568.84375 300.265625 C 569.035156 299.691406 570.4375 298.980469 570.949219 299.179688 C 571.632812 299.445312 572.519531 300.644531 572.402344 301.265625 C 571.773438 304.570312 570.949219 307.859375 569.949219 311.074219 C 569.753906 311.695312 568.425781 312.382812 567.699219 312.304688 Z M 567.707031 312.300781 " fill-opacity="1" fill-rule="nonzero"/><path fill="#000000" d="M 334.695312 278.503906 C 335.835938 277.863281 337.089844 278.261719 337.6875 279.488281 C 338.25 280.648438 337.8125 281.582031 336.601562 282.222656 C 336.011719 282.53125 335.355469 283.078125 335.132812 283.667969 C 334.375 285.730469 333.417969 287.820312 333.203125 289.964844 C 332.257812 299.4375 336.023438 307.039062 343.1875 313.003906 C 346.640625 315.878906 350.453125 318.3125 353.984375 321.101562 C 358.199219 324.4375 361.628906 328.421875 363.027344 333.785156 C 364.675781 340.066406 362.714844 345.207031 357.878906 349.363281 C 356.882812 350.222656 355.753906 350.5 354.730469 349.472656 C 353.722656 348.457031 354.015625 347.332031 354.796875 346.292969 C 355.027344 345.984375 355.328125 345.71875 355.601562 345.4375 C 359.535156 341.390625 360.195312 337.074219 357.644531 332.050781 C 355.949219 328.714844 353.371094 326.140625 350.429688 323.921875 C 347.464844 321.679688 344.382812 319.585938 341.441406 317.316406 C 333.507812 311.183594 329.046875 303.199219 328.71875 292.90625 C 328.824219 288.757812 329.488281 284.585938 332.007812 280.96875 C 332.691406 279.988281 333.652344 279.085938 334.691406 278.503906 Z M 334.695312 278.503906 " fill-opacity="1" fill-rule="nonzero"/><path fill="#000000" d="M 347.433594 350.457031 C 347.886719 350.082031 348.832031 349.949219 349.390625 350.148438 C 349.941406 350.347656 350.285156 351.109375 350.746094 351.652344 C 350.386719 352.492188 350.261719 353.277344 349.808594 353.75 C 348.546875 355.046875 347.257812 356.386719 345.75 357.351562 C 345.128906 357.746094 343.921875 357.222656 342.984375 357.117188 C 343.097656 356.183594 342.890625 354.992188 343.390625 354.359375 C 344.542969 352.902344 345.984375 351.644531 347.433594 350.457031 Z M 347.433594 350.457031 " fill-opacity="1" fill-rule="nonzero"/><path fill="#000000" d="M 427.847656 326.101562 C 429.425781 325.097656 431.160156 324.285156 432.925781 323.65625 C 433.535156 323.441406 434.742188 323.777344 435.089844 324.277344 C 435.453125 324.792969 435.414062 326.25 435.015625 326.523438 C 433.078125 327.863281 430.953125 328.941406 428.703125 330.222656 C 427.875 329.425781 426.917969 328.929688 426.867188 328.347656 C 426.796875 327.613281 427.253906 326.480469 427.847656 326.101562 Z M 427.847656 326.101562 " fill-opacity="1" fill-rule="nonzero"/><path fill="#000000" d="M 282.824219 164.75 C 278.171875 167.585938 272.9375 165.273438 271.910156 159.871094 C 271.613281 158.300781 271.113281 157.125 269.355469 156.925781 C 266.714844 156.628906 263.425781 158.726562 262.546875 161.265625 C 261.15625 165.273438 264.488281 169.578125 269.222656 169.742188 C 270.566406 169.785156 271.929688 169.441406 273.285156 169.269531 C 274.617188 169.101562 275.878906 169.226562 276.21875 170.789062 C 276.554688 172.316406 275.515625 173.117188 274.238281 173.472656 C 272.808594 173.875 271.320312 174.085938 269.855469 174.378906 C 265.320312 174.273438 260.992188 171.792969 259.089844 167.90625 C 257.308594 164.269531 257.40625 160.589844 259.902344 157.375 C 262.820312 153.617188 266.75 152.109375 271.527344 153.242188 C 271.90625 153.332031 272.558594 153.121094 272.789062 152.824219 C 273.65625 151.683594 274.660156 150.777344 276.074219 151.609375 C 277.605469 152.519531 277.023438 153.800781 276.289062 155 C 276.089844 155.324219 275.96875 155.71875 275.898438 156.097656 C 275.5625 157.964844 275.523438 159.859375 277.128906 161.152344 C 278.617188 162.347656 280.085938 161.472656 281.433594 160.585938 C 281.542969 160.511719 281.671875 160.390625 281.769531 160.40625 C 282.660156 160.574219 283.917969 160.488281 284.328125 161.035156 C 284.730469 161.566406 284.40625 162.792969 284.128906 163.628906 C 283.976562 164.097656 283.3125 164.441406 282.816406 164.742188 Z M 282.824219 164.75 " fill-opacity="1" fill-rule="nonzero"/><path fill="#000000" d="M 377.390625 141.433594 C 373.675781 144.007812 369.347656 145.09375 364.988281 145.917969 C 364.394531 146.03125 363.203125 145.179688 363 144.546875 C 362.792969 143.886719 363.234375 142.742188 363.785156 142.203125 C 364.378906 141.617188 365.40625 141.449219 366.269531 141.171875 C 368.796875 140.355469 371.335938 139.574219 373.871094 138.78125 C 373.914062 138.554688 373.957031 138.324219 374.003906 138.097656 C 372.53125 137.058594 371.136719 135.882812 369.574219 135.011719 C 366.558594 133.332031 363.457031 131.804688 360.371094 130.257812 C 359.230469 129.683594 358.234375 129 358.753906 127.578125 C 359.296875 126.09375 360.527344 126.039062 361.847656 126.511719 C 361.96875 126.554688 362.109375 126.566406 362.21875 126.632812 C 366.816406 129.199219 371.441406 131.730469 375.996094 134.371094 C 376.863281 134.871094 377.578125 135.75 378.15625 136.597656 C 379.355469 138.355469 379.136719 140.222656 377.390625 141.429688 Z M 377.390625 141.433594 " fill-opacity="1" fill-rule="nonzero"/><path fill="#000000" d="M 366.421875 156.210938 C 366.808594 155.84375 368.050781 155.894531 368.53125 156.242188 C 369.011719 156.597656 369.429688 157.804688 369.179688 158.230469 C 368.527344 159.347656 367.671875 160.699219 366.574219 161.132812 C 364.082031 162.109375 361.394531 162.597656 358.78125 163.285156 C 358.742188 163.121094 358.699219 162.957031 358.65625 162.789062 C 358.265625 162.789062 357.875 162.808594 357.484375 162.789062 C 354.074219 162.632812 350.738281 162.125 347.75 160.34375 C 346.515625 159.605469 345.78125 158.453125 346.625 157.054688 C 347.433594 155.730469 348.605469 156 349.875 156.597656 C 351.273438 157.257812 352.746094 157.90625 354.253906 158.15625 C 358.484375 158.855469 362.785156 159.679688 366.417969 156.210938 Z M 366.421875 156.210938 " fill-opacity="1" fill-rule="nonzero"/><path fill="#000000" d="M 364.796875 76.417969 C 362.164062 78.289062 359.355469 79.902344 356.726562 81.769531 C 354.984375 83.007812 353.46875 84.570312 351.785156 85.902344 C 350.769531 86.699219 349.382812 86.976562 348.71875 85.757812 C 348.335938 85.0625 348.59375 83.386719 349.183594 82.882812 C 352.84375 79.765625 356.644531 76.804688 360.484375 73.914062 C 361.433594 73.199219 362.734375 72.953125 364.246094 72.339844 C 364.878906 72.9375 365.949219 73.484375 366.050781 74.175781 C 366.148438 74.867188 365.460938 75.953125 364.796875 76.421875 Z M 364.796875 76.417969 " fill-opacity="1" fill-rule="nonzero"/><path fill="#000000" d="M 308.925781 107.429688 C 306.359375 108.878906 305.496094 111.433594 304.390625 113.839844 C 303.464844 115.847656 302.738281 117.972656 301.625 119.867188 C 301.234375 120.535156 299.949219 120.671875 299.074219 121.054688 C 298.703125 120.175781 297.785156 119.050781 298.050781 118.457031 C 299.898438 114.3125 301.875 110.207031 304.089844 106.246094 C 304.703125 105.144531 306.25 104.566406 307.492188 103.65625 C 308.363281 104.3125 309.285156 104.660156 309.445312 105.222656 C 309.632812 105.886719 309.398438 107.164062 308.929688 107.429688 Z M 308.925781 107.429688 " fill-opacity="1" fill-rule="nonzero"/><path fill="#000000" d="M 315.140625 128.28125 C 313.921875 128.152344 312.960938 127.582031 313.011719 126.207031 C 313.0625 124.714844 314.144531 124.296875 315.441406 124.242188 C 315.769531 124.230469 316.09375 124.242188 316.417969 124.242188 C 316.421875 124.199219 316.425781 124.15625 316.433594 124.113281 C 321.285156 124.679688 326.136719 125.222656 330.980469 125.832031 C 332.421875 126.015625 333.8125 126.5625 333.453125 128.398438 C 333.109375 130.171875 331.609375 129.921875 330.296875 129.789062 C 327.96875 129.550781 325.640625 129.265625 323.308594 129.035156 C 320.585938 128.769531 317.859375 128.5625 315.136719 128.285156 Z M 315.140625 128.28125 " fill-opacity="1" fill-rule="nonzero"/><path fill="#000000" d="M 314.085938 129.53125 C 318.304688 130.339844 322.535156 131.105469 326.75 131.96875 C 328.019531 132.230469 328.925781 133.050781 328.5625 134.488281 C 328.222656 135.847656 327.089844 136.011719 325.902344 135.8125 C 321.789062 135.128906 317.675781 134.441406 313.570312 133.71875 C 312.261719 133.488281 311.070312 132.921875 311.242188 131.347656 C 311.421875 129.710938 312.75 129.609375 314.085938 129.527344 Z M 314.085938 129.53125 " fill-opacity="1" fill-rule="nonzero"/><path fill="#000000" d="M 368.273438 108.09375 C 368.230469 108.832031 367.402344 109.609375 366.75 110.1875 C 366.441406 110.460938 365.753906 110.308594 364.84375 110.382812 C 362.785156 110 360.359375 109.566406 357.945312 109.09375 C 356.558594 108.820312 355.335938 108.210938 355.652344 106.546875 C 355.976562 104.808594 357.433594 104.902344 358.757812 105.097656 C 361.382812 105.480469 364.027344 105.832031 366.613281 106.414062 C 367.300781 106.566406 368.308594 107.546875 368.273438 108.09375 Z M 368.273438 108.09375 " fill-opacity="1" fill-rule="nonzero"/><path fill="#000000" d="M 369.546875 104.875 C 366.359375 104.332031 363.632812 103.984375 360.992188 103.328125 C 360.289062 103.152344 359.484375 102.046875 359.386719 101.285156 C 359.324219 100.785156 360.5 99.582031 361.015625 99.632812 C 364.035156 99.96875 367.050781 100.484375 370.007812 101.1875 C 370.523438 101.308594 371.121094 102.671875 371.015625 103.363281 C 370.917969 104.003906 369.933594 104.507812 369.550781 104.871094 Z M 369.546875 104.875 " fill-opacity="1" fill-rule="nonzero"/></svg>