<svg xmlns="http://www.w3.org/2000/svg" xmlns:xlink="http://www.w3.org/1999/xlink" width="1020" zoomAndPan="magnify" viewBox="0 0 765 540.000001" height="720" preserveAspectRatio="xMidYMid meet" version="1.0"><path fill="#00d4ff" d="M 461.894531 441.335938 C 462.71875 440.550781 463.519531 439.882812 464.207031 439.125 C 466.839844 436.21875 467.902344 432.902344 466.121094 429.230469 C 460.820312 418.292969 458.515625 406.390625 454.78125 394.945312 C 454.109375 392.894531 454.714844 391.246094 455.335938 389.371094 C 457.429688 383.066406 459.398438 376.71875 461.25 370.34375 C 461.667969 368.898438 462.34375 368.296875 463.710938 368.097656 C 465.386719 367.859375 467.042969 367.355469 468.71875 367.273438 C 470.019531 367.210938 471.40625 367.453125 472.648438 367.875 C 475.019531 368.683594 477.167969 368.507812 479.082031 366.894531 C 481.035156 365.242188 481.820312 363.078125 481.207031 360.570312 C 476.757812 342.433594 471.109375 324.695312 463.269531 307.714844 C 461.386719 303.636719 459.363281 299.578125 456.925781 295.816406 C 450.375 285.683594 443.777344 275.558594 436.808594 265.714844 C 425.789062 250.148438 411.078125 238.621094 395.003906 228.710938 C 391.570312 226.59375 388 224.671875 384.429688 222.777344 C 381.894531 221.433594 379.234375 220.617188 376.28125 220.296875 C 373.5625 220 370.933594 218.722656 368.316406 217.742188 C 367.878906 217.582031 367.503906 216.777344 367.421875 216.21875 C 366.945312 212.933594 366.582031 209.625 366.15625 206.332031 C 365.78125 203.449219 363.875 201.277344 361.351562 200.804688 C 358.78125 200.320312 356.789062 201.570312 355.167969 204.210938 C 354.304688 205.613281 352.960938 206.71875 351.695312 208.109375 C 349.402344 206.214844 347.015625 206.191406 344.164062 207.363281 C 342.304688 208.125 339.953125 207.6875 337.828125 207.824219 C 333.949219 208.078125 331.355469 210.734375 330.617188 214.597656 C 329.445312 220.726562 328.152344 226.839844 326.664062 232.902344 C 325.703125 236.808594 322.96875 238.46875 318.941406 238.304688 C 312.292969 238.035156 305.640625 237.925781 298.996094 237.566406 C 297.101562 237.464844 295.128906 236.992188 293.386719 236.238281 C 285.25 232.71875 277.855469 227.972656 271.082031 222.25 C 265.335938 217.398438 262.332031 211.296875 261.980469 203.722656 C 261.859375 201.078125 260.992188 198.375 259.984375 195.898438 C 258.726562 192.816406 255.777344 191.710938 252.742188 191.855469 C 248.601562 192.050781 244.441406 192.582031 240.363281 193.371094 C 232.210938 194.949219 224.582031 197.894531 217.910156 202.988281 C 217.132812 203.582031 216.398438 204.238281 215.640625 204.851562 C 213.730469 206.394531 211.78125 207.882812 209.921875 209.480469 C 206.128906 212.742188 204.261719 217.117188 203.351562 221.859375 C 201.933594 229.214844 203.070312 236.277344 206.652344 242.875 C 207.257812 243.996094 207.199219 244.605469 206.25 245.503906 C 200.597656 250.832031 195.035156 256.25 189.398438 261.597656 C 188.828125 262.136719 187.992188 262.402344 187.265625 262.761719 C 185.71875 263.539062 183.847656 263.964844 182.660156 265.109375 C 161.402344 285.535156 144.882812 309.117188 135.257812 337.191406 C 131.265625 348.832031 128.78125 360.789062 128.042969 373.109375 C 125.664062 412.746094 139.375 446.277344 166.789062 474.441406 C 186.28125 494.472656 209.9375 507.976562 236.117188 517.28125 C 251.828125 522.863281 268 526.554688 284.535156 528.695312 C 298.148438 530.460938 311.820312 531.300781 325.535156 530.875 C 365.191406 529.660156 403.074219 520.824219 439.191406 504.300781 C 445.925781 501.21875 453.074219 499.042969 460.035156 496.464844 C 462.101562 495.699219 463.9375 494.699219 465.058594 492.652344 C 465.300781 492.214844 466.042969 491.886719 466.59375 491.816406 C 470.3125 491.355469 473.097656 488.699219 473.453125 484.90625 C 473.847656 480.6875 474.289062 476.460938 474.300781 472.230469 C 474.339844 460.988281 470.179688 451.265625 463.0625 442.710938 C 462.695312 442.269531 462.320312 441.839844 461.886719 441.335938 Z M 461.894531 441.335938 " fill-opacity="1" fill-rule="nonzero"/><path fill="#a6988a" d="M 179.878906 71.175781 C 180.355469 87.730469 183.949219 104.589844 194.507812 119.273438 C 197.21875 123.039062 200.867188 126.121094 204.003906 129.59375 C 204.523438 130.171875 204.824219 131.140625 204.863281 131.941406 C 205.046875 135.992188 207.226562 138.929688 210.796875 139.679688 C 213.320312 140.207031 215.519531 139.355469 217.199219 137.578125 C 218.664062 136.027344 219.957031 134.257812 221.019531 132.40625 C 225.664062 124.320312 229.972656 116.035156 234.808594 108.066406 C 252.3125 79.226562 276.597656 57.761719 306.65625 42.679688 C 309.859375 41.074219 313.109375 39.542969 316.28125 37.882812 C 320.894531 35.460938 324.277344 31.855469 326.320312 27.042969 C 328.066406 22.921875 326.847656 19.984375 322.707031 18.285156 C 322.648438 18.257812 322.578125 18.25 322.523438 18.214844 C 315.628906 13.105469 308.273438 14.929688 300.976562 16.902344 C 297.964844 17.714844 295.042969 18.875 292.125 20.003906 C 290.976562 20.453125 290.152344 20.398438 289.085938 19.699219 C 278.179688 12.535156 265.96875 8.9375 253.210938 7.234375 C 242.503906 5.804688 232.398438 8.816406 222.546875 12.667969 C 206.941406 18.773438 194.644531 28.761719 186.40625 43.550781 C 181.8125 51.800781 179.820312 60.632812 179.875 71.179688 Z M 179.878906 71.175781 " fill-opacity="1" fill-rule="nonzero"/><path fill="#000000" d="M 132.894531 327.730469 C 145.191406 301.355469 163.28125 279.460938 185.253906 260.632812 C 189.753906 256.773438 194.457031 253.144531 199.117188 249.367188 C 199.027344 249.085938 198.960938 248.769531 198.832031 248.476562 C 196.542969 243.328125 195.535156 237.890625 195.4375 232.300781 C 195.332031 226.230469 196.398438 220.390625 200.496094 215.632812 C 202.957031 212.777344 205.617188 210.03125 208.519531 207.632812 C 218.542969 199.355469 230.210938 194.234375 242.558594 190.511719 C 244.207031 190.015625 245.875 189.585938 248.023438 188.992188 C 247.128906 188.695312 246.730469 188.550781 246.324219 188.425781 C 235.972656 185.28125 229.476562 178.335938 226.480469 168.066406 C 223.484375 157.78125 225.875 149.601562 233.480469 143.621094 C 236.667969 141.109375 240.3125 139.457031 244.25 138.707031 C 247.378906 138.113281 249.964844 136.632812 252.476562 134.871094 C 260.292969 129.386719 264.511719 121.960938 264.300781 112.304688 C 264.117188 103.855469 261.503906 96.03125 257.710938 88.5625 C 257.457031 88.0625 257.121094 87.601562 256.714844 86.953125 C 255.449219 88.429688 254.273438 89.734375 253.171875 91.097656 C 241.316406 105.710938 230.441406 120.890625 225.113281 139.300781 C 224.734375 140.625 223.882812 141.539062 222.371094 141.160156 C 220.832031 140.773438 220.558594 139.519531 220.890625 138.207031 C 221.414062 136.125 221.953125 134.027344 222.757812 132.042969 C 223.339844 130.59375 222.914062 129.941406 221.800781 129.011719 C 218.644531 126.394531 215.628906 123.613281 212.617188 120.820312 C 211.644531 119.917969 210.878906 118.800781 210.015625 117.78125 C 209.796875 117.792969 209.574219 117.804688 209.355469 117.816406 C 208.121094 122.988281 206.738281 128.128906 205.699219 133.34375 C 205.171875 136 204.582031 138.941406 205.203125 141.46875 C 207.007812 148.792969 211.695312 153.679688 219.21875 155.460938 C 220.621094 155.796875 221.59375 156.351562 221.386719 157.898438 C 221.160156 159.554688 219.859375 160.007812 218.476562 159.789062 C 217.078125 159.566406 215.664062 159.152344 214.382812 158.550781 C 206.507812 154.847656 202.175781 148.4375 200.433594 140.078125 C 200.296875 139.410156 200.09375 138.675781 199.6875 138.160156 C 195.5625 132.933594 191.148438 127.921875 187.277344 122.519531 C 178.40625 110.140625 173.542969 96.308594 173.851562 80.972656 C 174.210938 62.839844 179.351562 46.050781 189.722656 31.15625 C 198.820312 18.085938 211.105469 8.925781 226.40625 4.136719 C 239.632812 -0.00390625 253.015625 0.152344 266.460938 3.023438 C 276.667969 5.203125 286.332031 8.519531 294.167969 15.847656 C 294.582031 16.234375 295.578125 16.226562 296.238281 16.089844 C 299.355469 15.4375 302.421875 14.410156 305.570312 14.003906 C 315.707031 12.699219 324.394531 16.308594 328.179688 26.242188 C 328.246094 26.417969 328.386719 26.566406 328.585938 26.882812 C 329.160156 26.625 329.726562 26.324219 330.328125 26.125 C 334.277344 24.800781 338.152344 23.109375 342.203125 22.253906 C 354.542969 19.640625 366.089844 21.554688 376.320312 29.328125 C 379.367188 31.648438 381.863281 34.503906 383.382812 38.074219 C 385.765625 43.65625 383.882812 48.742188 378.414062 51.296875 C 376.773438 52.0625 374.992188 52.8125 373.226562 52.964844 C 365.175781 53.648438 357.109375 54.117188 349.042969 54.648438 C 348.320312 54.699219 347.585938 54.65625 346.832031 54.65625 C 350.394531 60.867188 353.78125 66.78125 357.167969 72.691406 C 361.898438 68.710938 365.585938 69.089844 369.492188 73.9375 C 369.898438 74.445312 370.304688 74.960938 370.640625 75.519531 C 375.359375 83.359375 377.722656 91.761719 376.441406 100.945312 C 375.996094 104.117188 375.257812 107.324219 372.839844 109.644531 C 371.921875 110.519531 371.777344 111.097656 372.050781 112.257812 C 376.691406 131.855469 379.539062 151.632812 377.246094 171.816406 C 376.292969 180.199219 373.886719 188.152344 368.945312 195.183594 C 368.511719 195.800781 368.4375 196.867188 368.570312 197.664062 C 369.597656 203.769531 370.789062 209.855469 371.75 215.972656 C 371.976562 217.429688 372.484375 218.058594 373.863281 218.507812 C 395.492188 225.550781 414.621094 236.734375 430.917969 252.730469 C 442.417969 264.015625 452.015625 276.726562 460.390625 290.429688 C 469.589844 305.484375 478.261719 320.8125 483.628906 337.730469 C 486.242188 345.984375 488.445312 354.359375 490.882812 362.839844 C 491.023438 362.839844 491.34375 362.859375 491.65625 362.839844 C 504.277344 361.890625 516.894531 360.714844 529.53125 360.058594 C 539.761719 359.53125 550.027344 359.777344 560.265625 359.371094 C 564.152344 359.214844 566.53125 360.871094 568.371094 363.925781 C 568.4375 364.035156 568.511719 364.144531 568.585938 364.25 C 577.355469 376.703125 585.277344 389.65625 591.914062 403.382812 C 592.785156 405.183594 592.675781 406.894531 591.738281 408.40625 C 588.914062 412.953125 586.003906 417.453125 582.917969 421.816406 C 582.179688 422.859375 580.699219 423.742188 579.421875 423.984375 C 567.699219 426.214844 555.949219 428.328125 544.195312 430.382812 C 541.972656 430.773438 540.46875 431.675781 539.0625 433.59375 C 531.03125 444.5 521.851562 454.347656 511.828125 463.503906 C 498.324219 475.835938 483.933594 486.917969 468.210938 496.234375 C 423.253906 522.875 374.566406 536.648438 322.390625 538.226562 C 296.792969 538.996094 271.546875 536.398438 246.773438 529.832031 C 216.851562 521.898438 189.382812 509.023438 166.046875 488.34375 C 137.996094 463.496094 121.234375 432.792969 119.105469 394.921875 C 117.777344 371.367188 122.972656 349.019531 132.898438 327.730469 Z M 283.386719 60.464844 C 275.554688 67.898438 267.824219 75.242188 259.800781 82.859375 C 262.46875 84.691406 264.605469 86.28125 266.859375 87.683594 C 272.648438 91.285156 278.699219 94.308594 285.507812 95.464844 C 290.492188 96.3125 293.378906 94.09375 293.285156 89.097656 C 293.105469 79.632812 289.816406 71.160156 284.585938 63.363281 C 284.144531 62.699219 283.957031 61.867188 283.386719 60.464844 Z M 285.773438 53.5625 C 286.71875 52.828125 286.898438 52.160156 286.523438 51.078125 C 284.1875 44.378906 280.28125 38.789062 274.75 34.363281 C 274.335938 34.03125 273.316406 33.875 272.953125 34.140625 C 266.261719 39.019531 260.082031 44.492188 254.605469 50.023438 C 259.554688 55.867188 264.378906 61.566406 269.304688 67.386719 C 271.097656 65.789062 273.214844 63.792969 275.441406 61.933594 C 278.839844 59.089844 282.28125 56.292969 285.773438 53.5625 Z M 256.390625 80.664062 C 258.996094 77.742188 261.8125 75.015625 264.445312 72.113281 C 264.886719 71.621094 265.265625 70.488281 265.003906 70.027344 C 261.511719 63.851562 257.140625 58.363281 251.691406 53.773438 C 251.597656 53.691406 251.453125 53.671875 251.332031 53.625 C 251.148438 53.535156 250.960938 53.449219 250.78125 53.359375 C 244.125 61.457031 237.476562 69.558594 230.734375 77.761719 C 235.761719 83.292969 240.484375 88.488281 245.1875 93.664062 C 248.992188 89.238281 252.628906 84.894531 256.394531 80.664062 Z M 212.628906 114.40625 C 216.144531 118.898438 220.054688 122.9375 224.578125 125.738281 C 230.433594 116.164062 236.230469 106.6875 242.226562 96.886719 C 237.960938 92.054688 233.367188 86.851562 228.617188 81.472656 C 227.121094 83.800781 225.609375 85.847656 224.421875 88.070312 C 220.316406 95.753906 216.328125 103.511719 212.269531 111.222656 C 211.640625 112.417969 211.792969 113.332031 212.632812 114.40625 Z M 201.152344 132.425781 C 203.132812 122.894531 205.867188 113.484375 210.28125 104.851562 C 196.503906 91.828125 186.851562 76.566406 181.988281 58.011719 C 172.992188 86.914062 180.59375 111.316406 201.152344 132.425781 Z M 196.683594 29.117188 C 195.234375 31.105469 193.578125 33.105469 192.222656 35.289062 C 190.4375 38.167969 188.996094 41.253906 187.210938 44.132812 C 185.058594 47.601562 185.082031 51.195312 185.808594 55.042969 C 188.09375 67.121094 193.828125 77.601562 200.835938 87.4375 C 203.734375 91.507812 207.28125 95.121094 210.558594 98.921875 C 211.011719 99.449219 211.597656 99.863281 211.894531 100.121094 C 218.289062 89.914062 224.644531 79.78125 230.953125 69.707031 C 219.734375 56.417969 208.304688 42.875 196.683594 29.117188 Z M 233.707031 66.015625 C 242.445312 56.710938 251.085938 47.519531 259.734375 38.308594 C 249.554688 27.691406 210.449219 19.34375 199.519531 26.054688 C 211.003906 39.480469 222.4375 52.84375 233.707031 66.011719 Z M 254.089844 5.710938 C 236.589844 4.039062 220.664062 8.511719 206.488281 19.730469 C 227.644531 18.347656 246.589844 23.523438 263.957031 35.453125 C 272.015625 28.871094 280.695312 22.816406 290.699219 18.246094 C 279.933594 9.25 267.089844 6.949219 254.089844 5.710938 Z M 293.90625 22.597656 C 293.542969 22.355469 292.84375 22.230469 292.492188 22.414062 C 287.378906 25.09375 282.300781 27.839844 276.820312 30.78125 C 283.519531 36.089844 288.011719 42.21875 290.621094 49.667969 C 296.195312 46.425781 301.535156 43.320312 307.011719 40.132812 C 304.75 32.800781 300.382812 26.917969 293.90625 22.597656 Z M 324.015625 27.800781 C 321.5 20.964844 315.4375 17.414062 307.265625 18.230469 C 305.007812 18.457031 302.78125 19.023438 300.546875 19.488281 C 299.746094 19.65625 298.980469 19.96875 297.773438 20.351562 C 304.402344 25.082031 308.558594 31.261719 311.191406 38.570312 C 313.503906 37.996094 315.707031 37.46875 317.894531 36.882812 C 318.191406 36.800781 318.417969 36.40625 318.640625 36.125 C 320.207031 34.167969 321.652344 32.09375 323.375 30.289062 C 324.183594 29.441406 324.417969 28.894531 324.015625 27.800781 Z M 363.1875 49.722656 C 367.125 49.523438 371.121094 48.898438 374.917969 47.84375 C 380.140625 46.398438 381.328125 42.863281 378.449219 38.234375 C 374.804688 32.378906 369.1875 29.121094 362.777344 27.257812 C 349.949219 23.53125 338 26.1875 326.785156 32.882812 C 325.121094 33.878906 323.863281 35.613281 322.546875 37.117188 C 320.605469 39.335938 318.902344 41.375 315.617188 42.214844 C 306.65625 44.507812 298.953125 49.507812 291.484375 54.808594 C 289.3125 56.347656 287.207031 57.988281 285.070312 59.582031 C 286.996094 59.144531 288.226562 60.046875 289.699219 61.140625 C 299.007812 68.074219 309.097656 73.355469 320.789062 74.949219 C 321.808594 75.085938 322.878906 75.03125 323.90625 74.929688 C 327.328125 74.589844 329.304688 72.824219 329.769531 69.417969 C 330.492188 64.132812 329.179688 59.191406 326.804688 54.507812 C 326.195312 53.316406 325.269531 51.980469 326.398438 50.957031 C 327.132812 50.292969 328.597656 50.285156 329.738281 50.265625 C 331.953125 50.222656 334.167969 50.480469 336.378906 50.433594 C 345.316406 50.257812 354.257812 50.167969 363.179688 49.71875 Z M 353.089844 74.8125 C 349.785156 68.820312 346.410156 62.863281 343.039062 56.90625 C 342.113281 55.277344 340.789062 54.601562 338.824219 54.777344 C 336.5625 54.980469 334.269531 54.828125 331.894531 54.828125 C 332.640625 58.03125 333.5625 60.910156 333.910156 63.855469 C 334.203125 66.339844 334.148438 68.964844 333.679688 71.417969 C 332.839844 75.828125 329.257812 78.777344 324.796875 79.308594 C 319.246094 79.972656 313.984375 78.640625 308.949219 76.605469 C 303.46875 74.386719 298.160156 71.738281 292.777344 69.277344 C 293.386719 70.847656 294.117188 72.605469 294.761719 74.402344 C 296.484375 79.207031 297.875 84.078125 297.753906 89.273438 C 297.574219 96.789062 292.507812 101.074219 285.074219 99.90625 C 278.457031 98.871094 272.5 96.105469 266.75 92.824219 C 265.796875 92.277344 264.867188 91.699219 263.566406 90.917969 C 264.265625 92.785156 264.851562 94.277344 265.378906 95.789062 C 267.769531 102.621094 269.351562 109.5625 268.5 116.886719 C 267.601562 124.59375 263.992188 130.808594 258.308594 135.9375 C 257.980469 136.230469 257.664062 136.535156 256.992188 137.167969 C 262.71875 136.84375 268.003906 136.550781 273.503906 136.242188 C 271.785156 131.953125 274.4375 129.300781 277.183594 126.839844 C 286.1875 118.796875 295.664062 111.472656 307.5625 108.109375 C 308.003906 107.988281 308.476562 107.65625 308.863281 107.746094 C 311.480469 108.347656 312.847656 106.601562 314.417969 105.046875 C 316.539062 102.957031 319.003906 101.390625 322 100.800781 C 322.421875 100.714844 322.851562 100.511719 323.214844 100.273438 C 326.742188 97.949219 330.121094 95.375 333.796875 93.332031 C 339.09375 90.382812 344.605469 87.832031 349.992188 85.046875 C 350.589844 84.738281 351.175781 84.054688 351.390625 83.421875 C 352.117188 81.261719 352.722656 79.058594 353.265625 76.839844 C 353.417969 76.207031 353.398438 75.355469 353.09375 74.808594 Z M 279.015625 135.851562 C 283.980469 140.585938 289.171875 145.054688 295.234375 148.371094 C 298.929688 150.390625 299.71875 150.289062 302.882812 147.527344 C 307.308594 143.671875 311.652344 139.722656 316.058594 135.847656 C 318.175781 133.988281 318.832031 131.785156 317.75 129.179688 C 315.367188 123.417969 312.929688 117.679688 310.523438 111.945312 C 297.699219 115.269531 288.105469 122.832031 279.050781 131.226562 C 276.925781 133.195312 276.953125 133.890625 279.011719 135.855469 Z M 353.542969 105.425781 C 353.039062 100.191406 352.273438 94.980469 351.617188 89.765625 C 351.300781 89.609375 350.984375 89.457031 350.667969 89.300781 C 343.101562 93.496094 335.542969 97.695312 327.976562 101.890625 C 326.921875 102.476562 326.855469 103.234375 327.578125 104.121094 C 331.125 108.464844 334.667969 112.804688 338.234375 117.132812 C 339.320312 118.449219 340.414062 118.523438 341.894531 117.453125 C 344.375 115.660156 346.980469 114.027344 349.644531 112.519531 C 352.46875 110.917969 353.84375 108.539062 353.546875 105.425781 Z M 372.351562 95.90625 C 372.179688 89.808594 370.585938 84.046875 367.601562 78.714844 C 366.910156 77.476562 366.003906 76.324219 365.035156 75.28125 C 363.988281 74.15625 362.6875 73.566406 361.207031 74.636719 C 359.789062 75.65625 359.328125 77.355469 360 78.941406 C 362.03125 83.746094 364.164062 88.511719 366.066406 93.363281 C 367.613281 97.296875 368.886719 101.335938 370.363281 105.554688 C 372.003906 102.382812 372.441406 99.164062 372.347656 95.90625 Z M 370.101562 183.058594 C 373.289062 174.210938 373.933594 164.945312 373.605469 155.636719 C 372.878906 134.824219 369.390625 114.519531 361.945312 94.992188 C 360.480469 91.15625 358.816406 87.394531 357.230469 83.601562 C 356.984375 83.023438 356.667969 82.46875 356.269531 81.671875 C 355.292969 84.726562 354.59375 87.34375 355.492188 90.441406 C 357.074219 95.886719 358.015625 101.5 357.730469 107.25 C 357.566406 110.542969 356.292969 113.234375 353.589844 115.078125 C 349.925781 117.582031 346.1875 119.972656 342.421875 122.320312 C 340.445312 123.550781 338.417969 123.066406 336.804688 121.640625 C 334.804688 119.878906 332.890625 117.976562 331.199219 115.921875 C 328.460938 112.597656 325.96875 109.082031 323.289062 105.710938 C 322.972656 105.3125 322.035156 105.015625 321.582031 105.191406 C 318.734375 106.253906 316.636719 108.316406 314.960938 110.773438 C 314.683594 111.179688 314.921875 112.109375 315.175781 112.679688 C 317.070312 116.90625 319.054688 121.089844 320.964844 125.308594 C 321.417969 126.3125 321.714844 127.390625 322.054688 128.441406 C 323.308594 132.363281 322.542969 135.832031 319.503906 138.632812 C 315.523438 142.304688 311.457031 145.890625 307.398438 149.480469 C 306.128906 150.605469 304.804688 151.671875 303.464844 152.710938 C 301.449219 154.265625 299.109375 154.734375 296.816406 153.746094 C 293.960938 152.515625 291.105469 151.144531 288.550781 149.394531 C 285.167969 147.078125 282.125 144.269531 278.828125 141.820312 C 277.867188 141.105469 276.5 140.449219 275.375 140.523438 C 266.59375 141.128906 257.839844 142.082031 249.054688 142.539062 C 246.570312 142.667969 244.214844 142.78125 241.894531 143.675781 C 232.359375 147.347656 228.25 154.78125 230.269531 164.792969 C 232.5 175.847656 240.175781 183.308594 251.050781 184.816406 C 255.324219 185.410156 259.394531 184.542969 263.046875 182.199219 C 267.136719 179.582031 268.863281 175.660156 268.929688 170.910156 C 268.9375 170.457031 268.710938 169.886719 268.910156 169.566406 C 269.40625 168.761719 269.945312 167.6875 270.714844 167.414062 C 271.925781 166.988281 273.003906 167.90625 273.054688 169.128906 C 273.144531 171.3125 273.21875 173.585938 272.738281 175.695312 C 271.460938 181.285156 267.878906 185.097656 262.691406 187.433594 C 261.867188 187.804688 261.019531 188.128906 259.945312 188.570312 C 260.375 190.476562 260.691406 192.394531 261.242188 194.25 C 263.429688 201.550781 265.605469 208.855469 268.007812 216.082031 C 268.507812 217.589844 269.757812 219.011719 271 220.089844 C 284.257812 231.628906 299.347656 237.480469 317.152344 234.6875 C 321.3125 234.03125 322.152344 233.269531 323.15625 229.164062 C 324.839844 222.261719 325.109375 215.21875 325.21875 208.167969 C 325.226562 207.566406 324.5625 206.601562 323.992188 206.390625 C 310.824219 201.503906 299.597656 193.476562 288.777344 184.773438 C 287.738281 183.9375 287.285156 182.851562 288.042969 181.683594 C 288.878906 180.390625 290.203125 180.441406 291.316406 181.242188 C 293.699219 182.953125 295.96875 184.828125 298.320312 186.585938 C 307.34375 193.335938 316.734375 199.472656 327.628906 202.789062 C 334.820312 204.984375 342.167969 206.15625 349.605469 204.019531 C 360.371094 200.917969 366.476562 193.097656 370.101562 183.046875 Z M 329.0625 216.183594 C 328.675781 220.726562 328.261719 225.285156 327.453125 229.765625 C 326.28125 236.25 323.578125 238.292969 317.066406 239.207031 C 300.328125 241.558594 285.503906 237.058594 272.308594 226.875 C 269.203125 224.472656 266.582031 221.40625 263.925781 218.476562 C 263.136719 217.601562 262.910156 216.175781 262.558594 214.957031 C 261.136719 210.085938 259.765625 205.203125 258.332031 200.152344 C 257.152344 200.367188 256.066406 200.507812 255.007812 200.765625 C 246.636719 202.804688 238.289062 204.914062 230.59375 208.960938 C 226.535156 211.09375 223 213.871094 220.53125 217.761719 C 216.589844 223.96875 216.445312 230.636719 223.691406 235.648438 C 232.292969 241.601562 241.796875 245.601562 251.859375 247.992188 C 263.011719 250.644531 274.324219 252.664062 285.609375 254.726562 C 301.09375 257.554688 316.554688 260.378906 330.898438 267.277344 C 332.234375 267.917969 333.546875 268.621094 334.824219 269.273438 C 341.730469 259.199219 348.070312 248.941406 350.375 236.679688 C 352.128906 227.328125 351.507812 218.136719 349.546875 208.726562 C 342.769531 210.160156 336.140625 209.472656 329.097656 207.914062 C 329.097656 210.863281 329.28125 213.539062 329.054688 216.183594 Z M 586.925781 402.550781 C 580.40625 389.875 572.679688 377.945312 564.589844 366.226562 C 563.167969 364.164062 561.558594 363.3125 559.074219 363.414062 C 547.332031 363.902344 535.574219 364.023438 523.851562 364.753906 C 510.242188 365.609375 496.660156 366.882812 483.082031 368.136719 C 476.929688 368.703125 470.808594 369.671875 464.195312 370.523438 C 468.527344 386.1875 472.792969 401.609375 477.113281 417.230469 C 479.390625 414.839844 481.6875 412.488281 483.882812 410.042969 C 484.15625 409.738281 484.023438 408.90625 483.855469 408.390625 C 480.832031 398.964844 477.957031 389.480469 474.652344 380.152344 C 472.851562 375.070312 473 374.089844 478.285156 373.511719 C 492.484375 371.964844 506.699219 370.523438 520.914062 369.140625 C 529.226562 368.328125 537.546875 367.554688 545.878906 367.070312 C 549.761719 366.84375 553.683594 367.304688 557.582031 367.582031 C 558.234375 367.625 559.070312 368.1875 559.433594 368.761719 C 564.261719 376.28125 569.054688 383.828125 573.769531 391.417969 C 574.863281 393.183594 575.714844 395.109375 576.558594 397.011719 C 577.714844 399.605469 576.746094 401.5625 573.929688 402.097656 C 567.972656 403.222656 562.007812 404.394531 556.007812 405.230469 C 544.054688 406.894531 532.078125 408.34375 520.109375 409.875 C 520.042969 409.882812 519.976562 409.90625 519.914062 409.894531 C 514.929688 409.035156 512.546875 412.253906 510.296875 416.316406 C 536.300781 412.410156 562.363281 410.648438 588.199219 405.21875 C 587.730469 404.242188 587.347656 403.382812 586.917969 402.542969 Z M 461.265625 377.019531 C 459.417969 382.546875 457.171875 387.878906 458.59375 394.035156 C 460.582031 402.652344 463.527344 410.910156 466.761719 419.09375 C 467.832031 421.808594 468.773438 424.574219 469.855469 427.550781 C 471.226562 425.511719 472.472656 423.695312 473.671875 421.84375 C 473.851562 421.570312 473.90625 421.105469 473.816406 420.785156 C 469.644531 406.195312 465.453125 391.609375 461.265625 377.019531 Z M 521.277344 398.347656 C 520.632812 400.699219 519.503906 402.921875 518.453125 405.535156 C 536.304688 403.289062 554.144531 401.042969 572.359375 398.746094 C 571.933594 397.640625 571.789062 397.023438 571.480469 396.507812 C 566.625 388.398438 561.769531 380.289062 556.824219 372.238281 C 556.480469 371.671875 555.429688 371.226562 554.722656 371.246094 C 547.820312 371.476562 540.910156 371.648438 534.027344 372.171875 C 524.925781 372.867188 515.84375 373.820312 506.761719 374.75 C 498.007812 375.644531 489.261719 376.652344 480.511719 377.617188 C 479.953125 377.679688 479.402344 377.867188 479.105469 377.9375 C 482.058594 387.378906 484.984375 396.746094 487.964844 406.292969 C 488.835938 405.539062 489.789062 404.710938 490.75 403.894531 C 495.914062 399.476562 501.183594 395.207031 507.277344 392.101562 C 508.78125 391.332031 510.386719 390.757812 511.921875 390.058594 C 514.625 388.828125 516.886719 389.746094 518.9375 391.503906 C 521.050781 393.308594 522 395.679688 521.273438 398.34375 Z M 568.597656 421.480469 C 571.617188 420.980469 574.664062 420.617188 577.695312 420.132812 C 578.296875 420.035156 579.101562 419.863281 579.40625 419.4375 C 581.5625 416.433594 583.609375 413.355469 585.941406 409.933594 C 580.386719 410.960938 575.355469 412.0625 570.273438 412.796875 C 559.691406 414.316406 549.078125 415.621094 538.484375 417.050781 C 528.601562 418.378906 518.746094 419.988281 508.828125 421 C 504.445312 421.441406 503.582031 425.074219 501.054688 427.355469 C 504.066406 429.382812 507.136719 430.503906 510.601562 430.160156 C 515.792969 429.648438 521.011719 429.300781 526.160156 428.492188 C 540.324219 426.265625 554.453125 423.816406 568.597656 421.480469 Z M 534.832031 432.621094 C 534.75 432.46875 534.667969 432.316406 534.589844 432.164062 C 530.855469 432.542969 527.121094 432.957031 523.382812 433.292969 C 518.253906 433.746094 513.132812 434.277344 507.992188 434.519531 C 504.3125 434.695312 501.023438 432.980469 498.273438 430.851562 C 495.945312 429.054688 495.410156 427.421875 497.332031 425.035156 C 502.613281 418.480469 507.839844 411.875 512.960938 405.195312 C 514.492188 403.195312 515.699219 400.921875 516.871094 398.675781 C 517.5625 397.359375 517.578125 395.914062 516.40625 394.679688 C 515.140625 393.34375 513.691406 393.441406 512.320312 394.277344 C 507.9375 396.949219 503.324219 399.355469 499.3125 402.515625 C 490.117188 409.765625 481.421875 417.609375 475.15625 427.679688 C 472.613281 431.761719 470.472656 436.089844 468.144531 440.308594 C 479.578125 450.636719 485.828125 463.257812 485.960938 479.21875 C 504.167969 465.351562 520.8125 450.359375 534.835938 432.617188 Z M 457.324219 451.753906 C 456.992188 451.890625 456.738281 452.230469 456.414062 452.503906 C 457.753906 454.945312 459.066406 457.328125 460.472656 459.894531 C 465.09375 458.152344 469.71875 456.40625 474.71875 454.519531 C 472.769531 451.992188 471.171875 449.875 469.511719 447.808594 C 469.296875 447.542969 468.683594 447.308594 468.386719 447.421875 C 464.679688 448.824219 460.996094 450.28125 457.320312 451.753906 Z M 465.246094 444.078125 C 461.523438 440.210938 456.222656 439.824219 449.621094 442.992188 C 451.0625 444.902344 452.480469 446.785156 453.804688 448.542969 C 457.804688 446.980469 461.515625 445.53125 465.246094 444.078125 Z M 469.640625 490.15625 C 471.136719 489.214844 472.429688 488.421875 473.695312 487.59375 C 475.28125 486.5625 476.777344 485.371094 478.441406 484.492188 C 480.511719 483.394531 481.125 481.667969 481.183594 479.277344 C 477.066406 481.070312 473.074219 482.8125 469.007812 484.585938 C 469.203125 486.296875 469.398438 488.023438 469.640625 490.15625 Z M 468.015625 480.34375 C 470.4375 479.375 472.679688 478.53125 474.875 477.589844 C 477.015625 476.675781 479.113281 475.660156 481.429688 474.59375 C 481.164062 472.859375 480.875 471.03125 480.597656 469.246094 C 475.886719 471.449219 471.328125 473.589844 466.671875 475.769531 C 467.066406 477.113281 467.484375 478.53125 468.015625 480.347656 Z M 478.140625 465.53125 C 479.046875 465.085938 479.339844 464.507812 478.890625 463.507812 C 478.066406 461.691406 477.34375 459.824219 476.640625 458.132812 C 472.230469 459.832031 468.183594 461.429688 464.105469 462.941406 C 462.613281 463.496094 462.023438 464.140625 462.859375 465.78125 C 463.761719 467.5625 464.371094 469.488281 465.328125 471.902344 C 469.710938 469.722656 473.925781 467.621094 478.144531 465.527344 Z M 151.8125 467.1875 C 168.796875 488.292969 190.480469 503.191406 215.0625 514.09375 C 234.203125 522.585938 254.238281 527.972656 274.929688 531.046875 C 294.644531 533.976562 314.453125 534.695312 334.304688 533.261719 C 380.25 529.953125 423.335938 517.113281 463.296875 494.042969 C 464.523438 493.335938 465.253906 492.488281 465.023438 491.117188 C 464.289062 486.769531 463.890625 482.3125 462.617188 478.128906 C 459.21875 466.960938 454.523438 456.382812 447.25 447.085938 C 443.480469 442.265625 438.953125 438.542969 433.027344 436.902344 C 430.621094 436.238281 428.011719 436.3125 425.492188 436.058594 C 416.863281 435.175781 408.242188 434.15625 399.597656 433.453125 C 391.664062 432.808594 383.703125 432.394531 375.746094 432.054688 C 361.203125 431.4375 346.65625 430.472656 332.113281 430.542969 C 319.34375 430.605469 306.566406 431.742188 293.8125 432.65625 C 283.53125 433.394531 273.253906 434.285156 263.019531 435.523438 C 254.679688 436.535156 246.417969 438.179688 238.121094 439.527344 C 236.253906 439.832031 234.382812 440.125 232.503906 440.335938 C 231.125 440.488281 229.75 440.289062 229.476562 438.621094 C 229.207031 436.957031 230.375 436.300781 231.785156 436.035156 C 234.984375 435.433594 238.175781 434.722656 241.410156 434.332031 C 243.503906 434.082031 243.898438 433.097656 243.703125 431.246094 C 242.6875 421.714844 241.929688 412.148438 240.71875 402.640625 C 238.320312 383.800781 235.066406 365.09375 230.632812 346.617188 C 228.777344 338.886719 226.574219 331.242188 224.515625 323.558594 C 224.195312 322.367188 223.90625 321.148438 225.367188 320.558594 C 226.851562 319.960938 227.835938 320.859375 228.261719 322.121094 C 229.464844 325.703125 230.617188 329.304688 231.625 332.949219 C 237.253906 353.289062 241.285156 373.949219 244.074219 394.851562 C 245.375 404.617188 246.589844 414.394531 247.742188 424.175781 C 248.074219 427.003906 248.066406 429.875 248.234375 433.144531 C 303.589844 424.484375 358.785156 424.246094 414.367188 430.617188 C 414.367188 428.742188 414.363281 427.203125 414.367188 425.671875 C 414.398438 416.078125 414.644531 406.476562 414.40625 396.886719 C 414.105469 384.59375 412.113281 372.472656 409.910156 360.394531 C 409.289062 356.992188 408.746094 353.574219 408.207031 350.160156 C 408.085938 349.390625 408.082031 348.597656 408.085938 347.816406 C 408.09375 346.652344 408.5625 345.523438 409.816406 345.722656 C 410.601562 345.847656 411.683594 346.765625 411.875 347.515625 C 412.496094 349.972656 412.777344 352.515625 413.175781 355.023438 C 414.835938 365.453125 416.726562 375.859375 418.078125 386.324219 C 419.53125 397.613281 419.378906 408.992188 419.003906 420.359375 C 418.890625 423.871094 418.988281 427.386719 418.988281 431.214844 C 422.109375 431.484375 425.210938 431.898438 428.316406 432.003906 C 434.582031 432.214844 439.957031 434.636719 444.792969 438.40625 C 445.886719 439.257812 446.816406 439.703125 448.121094 439 C 448.6875 438.695312 449.355469 438.597656 449.976562 438.382812 C 454.800781 436.699219 459.640625 435.496094 464.539062 438.269531 C 465.648438 435.894531 466.660156 433.722656 467.640625 431.632812 C 466.996094 430.847656 466.140625 430.210938 465.835938 429.375 C 462.519531 420.316406 459.226562 411.25 456.082031 402.128906 C 455.195312 399.554688 454.550781 396.824219 454.296875 394.121094 C 454.015625 391.046875 453.746094 387.785156 454.464844 384.847656 C 455.714844 379.75 457.609375 374.792969 459.464844 369.863281 C 460.339844 367.53125 462.339844 366.238281 464.886719 365.933594 C 471.105469 365.183594 477.320312 364.40625 483.535156 363.636719 C 484.359375 363.535156 485.183594 363.394531 486.296875 363.222656 C 484.582031 357.058594 482.929688 351.105469 481.277344 345.140625 C 476.175781 326.710938 467.164062 310.121094 457.328125 293.902344 C 447.933594 278.410156 437.058594 264.160156 423.582031 251.929688 C 408.996094 238.6875 392.167969 229.382812 373.742188 222.757812 C 373.445312 222.652344 373.113281 222.628906 372.644531 222.539062 C 372.761719 225.035156 372.882812 227.421875 372.980469 229.8125 C 373.421875 240.8125 372.082031 251.558594 368.417969 261.984375 C 368.21875 262.554688 368.546875 263.636719 369.011719 264.066406 C 378.167969 272.523438 381.554688 283.058594 380.1875 295.226562 C 379.46875 301.640625 378.234375 307.996094 377.542969 314.410156 C 377.246094 317.15625 377.433594 320.050781 377.949219 322.769531 C 379.398438 330.382812 384.910156 333.71875 392.414062 331.71875 C 394.167969 331.25 395.824219 330.433594 397.539062 329.808594 C 399.574219 329.070312 401.355469 330.042969 401.152344 331.875 C 401.074219 332.582031 400.488281 333.601562 399.886719 333.828125 C 397.339844 334.800781 394.75 335.828125 392.082031 336.300781 C 381.871094 338.101562 374.425781 332.269531 373.21875 321.992188 C 372.347656 314.523438 373.734375 307.285156 375.066406 300.042969 C 376.761719 290.84375 376.539062 281.953125 371.460938 273.746094 C 370.070312 271.5 368.308594 269.488281 366.480469 267.058594 C 365.070312 269.6875 363.929688 271.859375 362.742188 274.011719 C 362.234375 274.921875 361.707031 275.832031 361.074219 276.652344 C 360.222656 277.753906 359.082031 278.269531 357.839844 277.339844 C 356.707031 276.492188 356.84375 275.335938 357.476562 274.1875 C 358.863281 271.675781 360.246094 269.160156 361.613281 266.636719 C 361.914062 266.082031 362.136719 265.480469 362.445312 264.804688 C 359.921875 263.417969 357.402344 262.699219 354.65625 262.851562 C 353.332031 262.929688 351.996094 262.851562 351.800781 261.230469 C 351.59375 259.511719 352.945312 258.8125 354.304688 258.917969 C 357.507812 259.175781 360.6875 259.707031 364.273438 260.179688 C 371.324219 240.675781 368.578125 220.570312 365.039062 200.410156 C 362.21875 202.335938 359.699219 204.273438 356.96875 205.859375 C 353.59375 207.824219 353.492188 207.703125 354.328125 211.8125 C 357.382812 226.851562 355.679688 241.304688 348.746094 255.023438 C 346.691406 259.085938 344.09375 262.875 341.765625 266.800781 C 340.730469 268.539062 339.738281 270.292969 338.730469 272.046875 C 337.25 274.621094 334.851562 274.75 332.316406 273.308594 C 328.546875 271.15625 324.550781 269.320312 320.492188 267.769531 C 308.980469 263.363281 296.871094 261.292969 284.796875 259.128906 C 270.425781 256.554688 255.90625 254.636719 242.0625 249.683594 C 234.476562 246.972656 227.222656 243.628906 220.640625 238.894531 C 211.601562 232.386719 211.96875 223.144531 216.546875 215.773438 C 219.84375 210.460938 224.648438 206.800781 230.261719 204.171875 C 238.480469 200.335938 247.238281 198.261719 256.054688 196.394531 C 256.429688 196.3125 256.800781 196.226562 257.179688 196.140625 C 257.214844 195.886719 257.285156 195.683594 257.25 195.507812 C 257.019531 194.425781 256.757812 193.347656 256.429688 191.921875 C 254.378906 192.238281 252.3125 192.402344 250.320312 192.882812 C 236.40625 196.234375 223.449219 201.714844 212.023438 210.472656 C 210.113281 211.9375 208.378906 213.640625 206.628906 215.300781 C 202.515625 219.195312 200.121094 223.929688 199.957031 229.648438 C 199.589844 242.640625 203.511719 253.453125 215.671875 259.9375 C 218.605469 261.496094 221.597656 262.980469 224.671875 264.222656 C 236.160156 268.871094 248.1875 271.484375 260.359375 273.605469 C 270.1875 275.316406 279.96875 277.246094 289.765625 279.117188 C 290.785156 279.3125 291.773438 279.695312 292.730469 280.089844 C 293.992188 280.605469 294.90625 281.511719 294.402344 282.96875 C 293.859375 284.546875 292.535156 284.515625 291.144531 284.195312 C 285.496094 282.878906 279.875 281.4375 274.1875 280.332031 C 263.5 278.253906 252.6875 276.742188 242.09375 274.289062 C 234.765625 272.585938 227.589844 270 220.566406 267.253906 C 213.167969 264.351562 206.328125 260.375 201.515625 253.316406 C 198.746094 255.460938 196.054688 257.480469 193.4375 259.597656 C 171.746094 277.179688 153.511719 297.683594 140.433594 322.515625 C 131.992188 338.542969 126.257812 355.476562 124.242188 373.507812 C 120.328125 408.5625 129.78125 439.804688 151.832031 467.214844 Z M 151.8125 467.1875 " fill-opacity="1" fill-rule="nonzero"/><path fill="#000000" d="M 561.058594 325.054688 C 560.804688 325.640625 560.492188 326.371094 559.992188 326.644531 C 559.324219 327.015625 558.332031 327.324219 557.695312 327.085938 C 557.054688 326.84375 556.683594 325.902344 556.21875 325.300781 C 556.628906 324.285156 556.925781 323.492188 557.265625 322.722656 C 562.28125 311.320312 567.304688 299.925781 572.308594 288.519531 C 572.933594 287.105469 573.253906 285.300781 575.4375 285.796875 C 576.863281 286.117188 577.125 287.46875 576.054688 289.988281 C 571.09375 301.691406 566.074219 313.375 561.058594 325.054688 Z M 561.058594 325.054688 " fill-opacity="1" fill-rule="nonzero"/><path fill="#000000" d="M 529.347656 310.730469 C 528.699219 316.300781 528.027344 321.867188 527.386719 327.4375 C 527.238281 328.71875 526.554688 329.738281 525.316406 329.511719 C 524.527344 329.371094 523.703125 328.410156 523.269531 327.613281 C 522.941406 327.011719 523.203125 326.089844 523.203125 324.960938 C 524.167969 317.933594 525.171875 310.566406 526.191406 303.203125 C 526.351562 302.011719 526.828125 300.957031 528.238281 301.050781 C 529.703125 301.144531 530.234375 302.222656 530.125 303.535156 C 529.925781 305.9375 529.632812 308.332031 529.355469 310.730469 Z M 529.347656 310.730469 " fill-opacity="1" fill-rule="nonzero"/><path fill="#000000" d="M 588.308594 349.683594 C 586.945312 350.402344 585.414062 349.402344 585.402344 347.609375 C 585.542969 347.324219 585.710938 346.730469 586.074219 346.308594 C 590.417969 341.265625 594.777344 336.234375 599.171875 331.234375 C 599.980469 330.308594 601.066406 329.921875 602.105469 330.824219 C 603.128906 331.710938 602.902344 332.792969 602.179688 333.804688 C 601.953125 334.121094 601.71875 334.4375 601.46875 334.738281 C 597.722656 339.175781 593.980469 343.621094 590.210938 348.039062 C 589.671875 348.671875 589.035156 349.300781 588.3125 349.683594 Z M 588.308594 349.683594 " fill-opacity="1" fill-rule="nonzero"/><path fill="#000000" d="M 571.535156 339.496094 C 570.855469 340.6875 569.984375 341.804688 568.4375 341.03125 C 566.785156 340.203125 567.15625 338.789062 567.859375 337.511719 C 569.558594 334.441406 571.296875 331.390625 573.0625 328.363281 C 573.519531 327.585938 574.027344 326.746094 574.730469 326.234375 C 575.269531 325.84375 576.222656 325.683594 576.859375 325.867188 C 577.390625 326.015625 577.726562 326.820312 578.105469 327.285156 C 577.867188 327.964844 577.773438 328.414062 577.554688 328.800781 C 575.558594 332.375 573.554688 335.941406 571.53125 339.496094 Z M 571.535156 339.496094 " fill-opacity="1" fill-rule="nonzero"/><path fill="#000000" d="M 545.640625 312.300781 C 544.964844 312.222656 544.394531 311.167969 543.851562 310.617188 C 544.878906 306.867188 545.707031 303.523438 546.78125 300.265625 C 546.96875 299.691406 548.375 298.980469 548.886719 299.179688 C 549.570312 299.445312 550.457031 300.644531 550.335938 301.265625 C 549.707031 304.570312 548.886719 307.859375 547.886719 311.074219 C 547.691406 311.695312 546.359375 312.382812 545.636719 312.304688 Z M 545.640625 312.300781 " fill-opacity="1" fill-rule="nonzero"/><path fill="#000000" d="M 312.628906 278.503906 C 313.773438 277.863281 315.027344 278.261719 315.625 279.488281 C 316.183594 280.648438 315.75 281.582031 314.539062 282.222656 C 313.949219 282.53125 313.289062 283.078125 313.070312 283.667969 C 312.308594 285.730469 311.355469 287.820312 311.136719 289.964844 C 310.195312 299.4375 313.960938 307.039062 321.121094 313.003906 C 324.574219 315.878906 328.390625 318.3125 331.917969 321.101562 C 336.136719 324.4375 339.5625 328.421875 340.964844 333.785156 C 342.609375 340.066406 340.648438 345.207031 335.816406 349.363281 C 334.820312 350.222656 333.6875 350.5 332.667969 349.472656 C 331.660156 348.457031 331.953125 347.332031 332.730469 346.292969 C 332.964844 345.984375 333.265625 345.71875 333.539062 345.4375 C 337.46875 341.390625 338.132812 337.074219 335.578125 332.050781 C 333.882812 328.714844 331.304688 326.140625 328.363281 323.921875 C 325.398438 321.679688 322.316406 319.585938 319.378906 317.316406 C 311.441406 311.183594 306.980469 303.199219 306.652344 292.90625 C 306.757812 288.757812 307.425781 284.585938 309.941406 280.96875 C 310.625 279.988281 311.589844 279.085938 312.625 278.503906 Z M 312.628906 278.503906 " fill-opacity="1" fill-rule="nonzero"/><path fill="#000000" d="M 325.367188 350.457031 C 325.824219 350.082031 326.765625 349.949219 327.328125 350.148438 C 327.875 350.347656 328.222656 351.109375 328.683594 351.652344 C 328.324219 352.492188 328.199219 353.277344 327.742188 353.75 C 326.480469 355.046875 325.191406 356.386719 323.683594 357.351562 C 323.066406 357.746094 321.859375 357.222656 320.917969 357.117188 C 321.03125 356.183594 320.824219 354.992188 321.324219 354.359375 C 322.480469 352.902344 323.917969 351.644531 325.367188 350.457031 Z M 325.367188 350.457031 " fill-opacity="1" fill-rule="nonzero"/><path fill="#000000" d="M 405.78125 326.101562 C 407.359375 325.097656 409.097656 324.285156 410.863281 323.65625 C 411.472656 323.441406 412.679688 323.777344 413.023438 324.277344 C 413.386719 324.792969 413.351562 326.25 412.953125 326.523438 C 411.011719 327.863281 408.890625 328.941406 406.640625 330.222656 C 405.8125 329.425781 404.855469 328.929688 404.800781 328.347656 C 404.734375 327.613281 405.1875 326.480469 405.78125 326.101562 Z M 405.78125 326.101562 " fill-opacity="1" fill-rule="nonzero"/><path fill="#000000" d="M 260.757812 164.75 C 256.105469 167.585938 250.875 165.273438 249.84375 159.871094 C 249.546875 158.300781 249.046875 157.125 247.289062 156.925781 C 244.652344 156.628906 241.363281 158.726562 240.484375 161.265625 C 239.09375 165.273438 242.421875 169.578125 247.15625 169.742188 C 248.503906 169.785156 249.863281 169.441406 251.21875 169.269531 C 252.554688 169.101562 253.8125 169.226562 254.15625 170.789062 C 254.488281 172.316406 253.453125 173.117188 252.175781 173.472656 C 250.742188 173.875 249.253906 174.085938 247.789062 174.378906 C 243.257812 174.273438 238.929688 171.792969 237.027344 167.90625 C 235.246094 164.269531 235.34375 160.589844 237.839844 157.375 C 240.753906 153.617188 244.683594 152.109375 249.460938 153.242188 C 249.839844 153.332031 250.496094 153.121094 250.722656 152.824219 C 251.59375 151.683594 252.597656 150.777344 254.007812 151.609375 C 255.542969 152.519531 254.960938 153.800781 254.222656 155 C 254.023438 155.324219 253.902344 155.71875 253.832031 156.097656 C 253.496094 157.964844 253.460938 159.859375 255.066406 161.152344 C 256.554688 162.347656 258.023438 161.472656 259.367188 160.585938 C 259.476562 160.511719 259.609375 160.390625 259.707031 160.40625 C 260.597656 160.574219 261.851562 160.488281 262.265625 161.035156 C 262.667969 161.566406 262.339844 162.792969 262.066406 163.628906 C 261.910156 164.097656 261.246094 164.441406 260.75 164.742188 Z M 260.757812 164.75 " fill-opacity="1" fill-rule="nonzero"/><path fill="#000000" d="M 355.328125 141.433594 C 351.609375 144.007812 347.28125 145.09375 342.921875 145.917969 C 342.328125 146.03125 341.136719 145.179688 340.933594 144.546875 C 340.726562 143.886719 341.171875 142.742188 341.71875 142.203125 C 342.3125 141.617188 343.34375 141.449219 344.203125 141.171875 C 346.734375 140.355469 349.273438 139.574219 351.804688 138.78125 C 351.851562 138.554688 351.894531 138.324219 351.9375 138.097656 C 350.46875 137.058594 349.070312 135.882812 347.511719 135.011719 C 344.492188 133.332031 341.394531 131.804688 338.308594 130.257812 C 337.164062 129.683594 336.167969 129 336.6875 127.578125 C 337.234375 126.09375 338.460938 126.039062 339.785156 126.511719 C 339.90625 126.554688 340.042969 126.566406 340.152344 126.632812 C 344.753906 129.199219 349.378906 131.730469 353.933594 134.371094 C 354.796875 134.871094 355.515625 135.75 356.089844 136.597656 C 357.292969 138.355469 357.070312 140.222656 355.328125 141.429688 Z M 355.328125 141.433594 " fill-opacity="1" fill-rule="nonzero"/><path fill="#000000" d="M 344.359375 156.210938 C 344.746094 155.84375 345.984375 155.894531 346.464844 156.242188 C 346.945312 156.597656 347.363281 157.804688 347.117188 158.230469 C 346.460938 159.347656 345.605469 160.699219 344.507812 161.132812 C 342.015625 162.109375 339.328125 162.597656 336.71875 163.285156 C 336.675781 163.121094 336.636719 162.957031 336.589844 162.789062 C 336.199219 162.789062 335.8125 162.808594 335.421875 162.789062 C 332.007812 162.632812 328.671875 162.125 325.683594 160.34375 C 324.453125 159.605469 323.714844 158.453125 324.5625 157.054688 C 325.367188 155.730469 326.542969 156 327.8125 156.597656 C 329.210938 157.257812 330.683594 157.90625 332.191406 158.15625 C 336.421875 158.855469 340.71875 159.679688 344.355469 156.210938 Z M 344.359375 156.210938 " fill-opacity="1" fill-rule="nonzero"/><path fill="#000000" d="M 342.730469 76.417969 C 340.101562 78.289062 337.289062 79.902344 334.664062 81.769531 C 332.917969 83.007812 331.402344 84.570312 329.71875 85.902344 C 328.707031 86.699219 327.320312 86.976562 326.652344 85.757812 C 326.269531 85.0625 326.53125 83.386719 327.121094 82.882812 C 330.78125 79.765625 334.578125 76.804688 338.421875 73.914062 C 339.367188 73.199219 340.671875 72.953125 342.183594 72.339844 C 342.8125 72.9375 343.882812 73.484375 343.984375 74.175781 C 344.082031 74.867188 343.394531 75.953125 342.730469 76.421875 Z M 342.730469 76.417969 " fill-opacity="1" fill-rule="nonzero"/><path fill="#000000" d="M 286.859375 107.429688 C 284.292969 108.878906 283.429688 111.433594 282.324219 113.839844 C 281.402344 115.847656 280.675781 117.972656 279.558594 119.867188 C 279.167969 120.535156 277.882812 120.671875 277.011719 121.054688 C 276.640625 120.175781 275.722656 119.050781 275.984375 118.457031 C 277.835938 114.3125 279.8125 110.207031 282.023438 106.246094 C 282.636719 105.144531 284.183594 104.566406 285.429688 103.65625 C 286.296875 104.3125 287.222656 104.660156 287.378906 105.222656 C 287.566406 105.886719 287.335938 107.164062 286.863281 107.429688 Z M 286.859375 107.429688 " fill-opacity="1" fill-rule="nonzero"/><path fill="#000000" d="M 293.078125 128.28125 C 291.859375 128.152344 290.898438 127.582031 290.945312 126.207031 C 291 124.714844 292.082031 124.296875 293.378906 124.242188 C 293.703125 124.230469 294.027344 124.242188 294.355469 124.242188 C 294.359375 124.199219 294.363281 124.15625 294.371094 124.113281 C 299.222656 124.679688 304.074219 125.222656 308.917969 125.832031 C 310.355469 126.015625 311.746094 126.5625 311.390625 128.398438 C 311.042969 130.171875 309.542969 129.921875 308.234375 129.789062 C 305.902344 129.550781 303.578125 129.265625 301.242188 129.035156 C 298.523438 128.769531 295.792969 128.5625 293.074219 128.285156 Z M 293.078125 128.28125 " fill-opacity="1" fill-rule="nonzero"/><path fill="#000000" d="M 292.019531 129.53125 C 296.242188 130.339844 300.472656 131.105469 304.683594 131.96875 C 305.957031 132.230469 306.859375 133.050781 306.496094 134.488281 C 306.15625 135.847656 305.027344 136.011719 303.839844 135.8125 C 299.722656 135.128906 295.609375 134.441406 291.503906 133.71875 C 290.199219 133.488281 289.007812 132.921875 289.179688 131.347656 C 289.355469 129.710938 290.6875 129.609375 292.019531 129.527344 Z M 292.019531 129.53125 " fill-opacity="1" fill-rule="nonzero"/><path fill="#000000" d="M 346.210938 108.09375 C 346.164062 108.832031 345.339844 109.609375 344.683594 110.1875 C 344.375 110.460938 343.6875 110.308594 342.78125 110.382812 C 340.71875 110 338.296875 109.566406 335.878906 109.09375 C 334.492188 108.820312 333.273438 108.210938 333.585938 106.546875 C 333.910156 104.808594 335.367188 104.902344 336.691406 105.097656 C 339.320312 105.480469 341.964844 105.832031 344.550781 106.414062 C 345.238281 106.566406 346.246094 107.546875 346.210938 108.09375 Z M 346.210938 108.09375 " fill-opacity="1" fill-rule="nonzero"/><path fill="#000000" d="M 347.480469 104.875 C 344.292969 104.332031 341.570312 103.984375 338.925781 103.328125 C 338.226562 103.152344 337.421875 102.046875 337.324219 101.285156 C 337.257812 100.785156 338.433594 99.582031 338.949219 99.632812 C 341.972656 99.96875 344.984375 100.484375 347.941406 101.1875 C 348.457031 101.308594 349.054688 102.671875 348.949219 103.363281 C 348.851562 104.003906 347.867188 104.507812 347.484375 104.871094 Z M 347.480469 104.875 " fill-opacity="1" fill-rule="nonzero"/></svg>